<svg width="21" height="21" fill="none" xmlns="http://www.w3.org/2000/svg"><path d="M17.49 13.16a4.167 4.167 0 002.672-5.245 4.163 4.163 0 00-5.246-2.67l-.238.078A4.165 4.165 0 0010.524.914a4.16 4.16 0 00-4.163 4.161v.251a4.172 4.172 0 00-5.478 2.59 4.159 4.159 0 002.674 5.244l.239.077a6.537 6.537 0 00-.163.216 4.157 4.157 0 00.968 5.82c2.147 1.527 4.656.597 5.778-.946l.147-.202a6.148 6.148 0 00.173.243c1.429 1.917 4.023 2.156 5.78.88a4.155 4.155 0 00.922-5.812l-.15-.205a6.681 6.681 0 00.24-.071zm-2.217-6.818a3.01 3.01 0 013.792 1.931 3.01 3.01 0 01-1.934 3.79 5.151 5.151 0 01-3.958-.312l-.432-.22a4.69 4.69 0 003.052-2.382.575.575 0 00-.083-.715.58.58 0 00-.923.15 3.533 3.533 0 01-2.9 1.916l.938-.938a6.31 6.31 0 001.676-2.969l.772-.25zM7.515 5.075a3.006 3.006 0 013.009-3.007 3.01 3.01 0 013.006 3.007 5.16 5.16 0 01-1.52 3.67l-.341.342a4.696 4.696 0 00-1.347-3.667.578.578 0 10-.823.808 3.54 3.54 0 01.925 3.354L9.822 8.4a6.308 6.308 0 00-2.307-2.512v-.812zm-5.535 3.2a3.016 3.016 0 013.792-1.933 5.16 5.16 0 013.022 2.58l.218.43a4.7 4.7 0 00-3.914.153.577.577 0 10.535 1.023 3.543 3.543 0 013.47.162l-1.316.208a6.301 6.301 0 00-3.102 1.416l-.771-.251A3.006 3.006 0 011.98 8.274zm7.466 9.374a3.033 3.033 0 01-1.965 1.203c-1.697.268-3.186-.916-3.442-2.5-.388-2.457 2.251-4.05 3.928-4.315l.475-.075a4.7 4.7 0 00-1.062 3.756.577.577 0 101.14-.17 3.542 3.542 0 011.222-3.258l-.208 1.314a6.296 6.296 0 00.388 3.39l-.476.655zm7.02-3.535a3.002 3.002 0 01-.679 4.21c-.217.156-2.305 1.56-4.21-.705a5.152 5.152 0 01-.903-3.834l.075-.475a4.69 4.69 0 003.204 2.169.578.578 0 00.717-.557c0-.183-.116-.516-.489-.575a3.534 3.534 0 01-2.717-2.172l1.185.604a6.307 6.307 0 003.34.677l.477.658z" fill="#fff"/></svg>