<svg width="24" height="24" viewBox="0 0 24 24" fill="none" xmlns="http://www.w3.org/2000/svg">
<path fill-rule="evenodd" clip-rule="evenodd" d="M12 23.7279L18.364 17.3639C19.6227 16.1052 20.4798 14.5016 20.8271 12.7558C21.1743 11.0099 20.9961 9.20035 20.3149 7.55582C19.6337 5.91129 18.4802 4.50569 17.0001 3.51677C15.5201 2.52784 13.78 2 12 2C10.22 2 8.47992 2.52784 6.99988 3.51677C5.51984 4.50569 4.36629 5.91129 3.6851 7.55582C3.00391 9.20035 2.82567 11.0099 3.17293 12.7558C3.52019 14.5016 4.37734 16.1052 5.636 17.3639L12 23.7279ZM12 14C13.6569 14 15 12.6569 15 11C15 9.34315 13.6569 8 12 8C10.3431 8 9 9.34315 9 11C9 12.6569 10.3431 14 12 14Z" fill="#9FBE37"/>
</svg>
