<svg width="290" height="42" fill="none" xmlns="http://www.w3.org/2000/svg"><g clip-path="url(#clip0)"><path d="M19.586 30.861c.717 1.592 1.076 3.253.789 5.12-.861 5.952-8.179 5.675-12.483 3.53C3.085 37.158 0 32.314 0 27.125c0-5.12 3.659-10.587 6.17-14.877a215.294 215.294 0 014.735-7.473C11.98 3.252 12.985 1.59 14.492 0c-1.507 2.283-2.87 5.536-3.3 7.127-.646 2.422-1.076 5.19-.933 7.68.215 3.807 2.08 6.298 4.52 9.273 1.794 2.145 3.73 4.29 4.807 6.781z" fill="#9FBE37"/><path d="M9.614 30.861c-.933 1.454-1.507 3.253-1.22 5.12.86 5.952 8.179 5.675 12.483 3.53 5.524-2.699 9.04-8.926 7.39-14.808-1.507-5.466-7.318-8.788-8.538-14.324.144 2.699 1.292 4.844 1.148 7.681-.215 4.221-1.65 6.574-5.452 8.442-2.511 1.245-4.448 2.145-5.811 4.36z" fill="#F9EA37"/><path d="M16.357 26.018c-.287.207-.645.346-1.004.553-2.511 1.246-4.376 2.076-5.811 4.29-.933 1.453-1.507 3.253-1.22 5.12.502 3.391 3.085 4.775 6.027 4.914 2.94-.139 5.524-1.523 6.026-4.913.287-1.868-.072-3.53-.79-5.12-.788-1.73-1.936-3.322-3.228-4.844z" fill="#C9D244"/><path d="M49.439 18.555c-2.312 0-4.143-.744-5.684-2.137-1.445-1.487-2.216-3.252-2.216-5.483 0-2.23.77-4.088 2.216-5.482 1.445-1.487 3.372-2.137 5.684-2.137 2.312 0 4.239.743 5.684 2.137 1.445 1.394 2.216 3.252 2.216 5.482 0 2.045-.675 3.81-2.023 5.204l1.156 1.3-2.216 1.766-1.253-1.393c-1.156.557-2.312.743-3.564.743zm0-2.788c.578 0 1.06-.093 1.638-.278l-1.735-1.859 2.216-1.765 1.638 1.95a5.6 5.6 0 00.77-2.88c0-1.393-.385-2.601-1.252-3.438-.867-.929-1.926-1.393-3.372-1.393-1.445 0-2.504.464-3.371 1.393-.867.93-1.253 2.045-1.253 3.438 0 1.394.385 2.602 1.252 3.438.964.93 2.12 1.394 3.469 1.394zm25.241 2.509h-3.661l-.963-2.509-5.588-2.787-1.83 5.296h-3.661l5.876-14.774H68.9l5.78 14.774zm-5.492-5.296L66.78 6.568l-2.312 6.412h4.72zm19.654 5.296H77.28v-2.509l7.13-9.477h-7.13V3.502h11.368V6.01l-7.129 9.478h7.322v2.787zm18.208 0h-3.661l-.963-2.509-5.588-2.787-1.83 5.296h-3.661l5.877-14.774h4.046l5.78 14.774zm-5.491-5.296L99.15 6.568l-2.312 6.412h4.721zm15.125 5.575c-2.312 0-4.142-.744-5.684-2.137-1.445-1.487-2.216-3.252-2.216-5.483 0-2.23.771-4.088 2.216-5.482 1.445-1.487 3.372-2.137 5.684-2.137 2.312 0 4.239.743 5.684 2.137 1.445 1.394 2.216 3.252 2.216 5.482 0 2.045-.674 3.81-2.023 5.204l1.156 1.3-2.216 1.766-1.252-1.393c-1.156.557-2.312.743-3.565.743zm0-2.788c.578 0 1.06-.093 1.638-.278l-1.638-1.952 2.216-1.765 1.638 1.951a5.616 5.616 0 00.771-2.88c0-1.394-.386-2.602-1.253-3.439-.867-.929-1.927-1.393-3.372-1.393-1.445 0-2.505.464-3.372 1.393-.867.93-1.252 2.045-1.252 3.438 0 1.394.385 2.602 1.252 3.438.867 1.023 1.927 1.487 3.372 1.487zm25.241 2.509h-3.661l-.963-2.509-5.588-2.787-1.83 5.296h-3.661l5.876-14.774h4.047l5.78 14.774zm-5.491-5.296l-2.409-6.412-2.312 6.412h4.721zm13.873 5.575c-2.698 0-4.817-.744-6.455-2.323l1.734-2.416c1.349 1.3 2.89 1.951 4.817 1.951.867 0 1.445-.186 1.927-.464.482-.28.674-.744.674-1.208 0-.372-.192-.744-.674-1.022-.386-.28-.964-.465-1.638-.558-.674-.093-1.349-.279-2.119-.465-.771-.185-1.446-.464-2.12-.743-.674-.279-1.156-.743-1.638-1.3-.385-.651-.674-1.302-.674-2.23 0-1.302.482-2.324 1.541-3.16 1.06-.836 2.409-1.301 4.143-1.301 2.409 0 4.335.65 5.877 2.044l-1.831 2.323c-1.156-1.115-2.697-1.58-4.431-1.58-.675 0-1.253.093-1.638.372s-.578.65-.578 1.115c0 .372.193.65.674.93.386.278.964.464 1.638.557.674.093 1.349.279 2.119.558.771.185 1.446.464 2.12.743.674.279 1.156.743 1.638 1.394.385.65.674 1.393.674 2.23 0 1.394-.482 2.601-1.541 3.438-.771.65-2.312 1.115-4.239 1.115zm16.378-.279h-3.276V6.29h-4.432V3.502h12.139V6.29h-4.431v11.986zm15.607 0h-3.276v-6.04l-5.876-8.734h3.66l3.758 5.947 3.757-5.947h3.661l-5.781 8.734v6.04h.097zm15.221.279c-2.312 0-4.142-.744-5.684-2.137-1.445-1.487-2.215-3.252-2.215-5.483 0-2.23.77-4.088 2.215-5.482 1.445-1.487 3.372-2.137 5.684-2.137 2.313 0 4.239.743 5.684 2.137 1.446 1.394 2.216 3.252 2.216 5.482 0 2.045-.674 3.81-2.023 5.204l1.156 1.3-2.216 1.766-1.252-1.393c-1.06.557-2.312.743-3.565.743zm0-2.788c.578 0 1.06-.093 1.638-.278l-1.638-1.952 2.216-1.765 1.638 1.951a5.606 5.606 0 00.771-2.88c0-1.394-.386-2.602-1.253-3.439-.867-.929-1.926-1.393-3.372-1.393-1.445 0-2.504.464-3.371 1.393-.868.93-1.253 2.045-1.253 3.438 0 1.394.385 2.602 1.253 3.438.867 1.023 2.023 1.487 3.371 1.487zm18.883 2.788c-2.216 0-4.046-.65-5.491-2.044-1.445-1.394-2.216-3.16-2.216-5.297 0-2.23.771-3.995 2.216-5.296 1.445-1.394 3.372-2.044 5.491-2.044 2.601 0 4.624 1.022 6.069 3.159l-2.601 1.394c-.385-.558-.867-1.022-1.445-1.301-.578-.279-1.252-.558-2.023-.558-1.349 0-2.408.465-3.276 1.301-.867.836-1.252 1.951-1.252 3.345 0 1.394.385 2.51 1.252 3.345.868.837 1.927 1.301 3.276 1.301.578 0 1.156-.093 1.734-.278.578-.186.964-.465 1.349-.744v-1.672h-3.854V10.47h6.937v5.482c-1.542 1.766-3.661 2.602-6.166 2.602zm10.309-7.991h6.358c.674 0 1.156-.186 1.541-.558.386-.372.579-.836.579-1.394 0-.557-.193-1.022-.579-1.393-.385-.372-.963-.558-1.541-.558h-6.358V3.966h6.84c1.541 0 2.697.465 3.564 1.301.867.836 1.349 1.952 1.349 3.345 0 1.208-.289 2.137-.963 2.788a3.767 3.767 0 01-2.216 1.394l3.275 5.39h-3.564l-2.89-5.019h-2.313v5.018h-3.082v-7.62zm22.543 7.991c-2.216 0-4.046-.65-5.491-2.044-1.445-1.394-2.12-3.16-2.12-5.297 0-2.137.675-3.902 2.12-5.296 1.445-1.394 3.275-2.044 5.491-2.044 2.216 0 4.046.65 5.491 2.044 1.446 1.394 2.12 3.16 2.12 5.296 0 2.137-.674 3.903-2.12 5.297-1.445 1.393-3.275 2.044-5.491 2.044zm-3.179-3.996c.771.837 1.83 1.301 3.179 1.301 1.349 0 2.409-.464 3.179-1.3.771-.837 1.253-1.952 1.253-3.346 0-1.394-.386-2.416-1.253-3.345-.77-.836-1.927-1.3-3.179-1.3-1.252 0-2.408.464-3.179 1.3-.771.836-1.253 1.951-1.253 3.345.097 1.301.482 2.416 1.253 3.345zm26.108 2.416c-1.156 1.022-2.794 1.58-4.913 1.58-2.12 0-3.758-.558-4.914-1.58-1.156-1.115-1.637-2.509-1.637-4.274V4.152h3.179v8.456c0 1.022.289 1.858.867 2.416.578.558 1.445.93 2.505.93 1.059 0 1.926-.28 2.505-.93.578-.557.867-1.394.867-2.416V4.152h3.179v8.549c0 1.765-.482 3.16-1.638 4.274zm9.249 1.301h-3.083V4.059h6.84c1.541 0 2.698.465 3.565 1.301.867.836 1.252 1.951 1.252 3.252 0 1.301-.482 2.416-1.349 3.252-.867.837-2.023 1.301-3.564 1.301h-3.758v5.11h.097zm3.275-7.713c.578 0 1.156-.185 1.542-.557.385-.372.578-.836.578-1.394 0-.557-.193-1.022-.578-1.394-.386-.371-.867-.557-1.542-.557h-3.275v3.81l3.275.092z" fill="#fff"/><path d="M52.579 35.696h-1.211V27.88l-3.312 7.815h-.496l-3.297-7.815v7.815h-1.211V26.2h1.736l3.02 7.146 3.035-7.146h1.736v9.495zm10.892 0h-1.386l-.86-2.107H56.38l-.861 2.107h-1.386l3.91-9.495h1.503l3.924 9.495zm-2.611-3.16l-2.057-5.11-2.072 5.11h4.129zm8.244 3.331c-1.42 0-2.611-.456-3.574-1.367-.954-.92-1.43-2.102-1.43-3.544 0-1.443.477-2.62 1.43-3.53.963-.921 2.154-1.381 3.574-1.381 1.556 0 2.787.626 3.691 1.879l-1.021.555a3.19 3.19 0 00-1.138-.997 3.186 3.186 0 00-1.532-.384c-1.07 0-1.965.365-2.684 1.096-.71.721-1.065 1.642-1.065 2.762S65.71 33 66.42 33.73c.72.721 1.614 1.082 2.684 1.082.545 0 1.055-.123 1.532-.37a3.137 3.137 0 001.138-1.01l1.036.554c-.944 1.253-2.179 1.88-3.706 1.88zm4.827 0v-1.054c.418 0 .759-.095 1.021-.285.263-.19.496-.564.7-1.124.205-.57.375-1.38.511-2.434l.598-4.769h5.953v9.495h-1.211v-8.441H77.84l-.481 3.8c-.127 1.016-.297 1.85-.511 2.505-.204.655-.462 1.149-.773 1.48-.302.324-.618.542-.949.656-.32.114-.72.17-1.196.17zm15.784 0c-1.43 0-2.592-.465-3.486-1.395-.895-.93-1.343-2.102-1.343-3.516 0-1.414.448-2.586 1.343-3.516.894-.93 2.057-1.395 3.486-1.395 1.42 0 2.578.465 3.473 1.395.904.93 1.356 2.102 1.356 3.516 0 1.414-.452 2.585-1.356 3.515-.895.93-2.053 1.396-3.473 1.396zm0-1.054c1.07 0 1.931-.36 2.583-1.082.661-.73.992-1.656.992-2.775 0-1.13-.33-2.055-.992-2.776-.652-.721-1.513-1.082-2.583-1.082-1.08 0-1.945.36-2.597 1.082-.651.721-.977 1.646-.977 2.776 0 1.12.326 2.045.977 2.775.652.721 1.518 1.082 2.597 1.082zm9.989 1.054c-1.527 0-2.762-.627-3.706-1.88l1.036-.555c.282.418.661.755 1.138 1.011.477.247.987.37 1.532.37 1.002 0 1.848-.318 2.539-.954.7-.645 1.094-1.475 1.181-2.49h-5.34v-1.054h5.311c-.136-.959-.545-1.732-1.225-2.32-.681-.598-1.503-.897-2.466-.897a3.19 3.19 0 00-1.532.384 3.19 3.19 0 00-1.138.997l-1.021-.555c.904-1.253 2.135-1.88 3.691-1.88 1.42 0 2.607.46 3.56 1.381.963.911 1.444 2.088 1.444 3.53 0 1.443-.481 2.625-1.444 3.545-.953.911-2.14 1.367-3.56 1.367zm14.557-.171h-1.503l-3.691-4.27-.977 1.081v3.189h-1.211V26.2h1.211v4.911l4.304-4.91h1.517l-4.056 4.512 4.406 4.982zm5.498.171c-1.42 0-2.611-.456-3.574-1.367-.953-.92-1.43-2.102-1.43-3.544 0-1.443.477-2.62 1.43-3.53.963-.921 2.154-1.381 3.574-1.381 1.557 0 2.787.626 3.691 1.879l-1.021.555a3.187 3.187 0 00-1.138-.997 3.184 3.184 0 00-1.532-.384c-1.07 0-1.964.365-2.684 1.096-.71.721-1.065 1.642-1.065 2.762s.355 2.045 1.065 2.775c.72.721 1.614 1.082 2.684 1.082.545 0 1.056-.123 1.532-.37a3.133 3.133 0 001.138-1.01l1.036.554c-.943 1.253-2.179 1.88-3.706 1.88zm9.159-.171h-1.211v-8.441h-3.078V26.2h7.382v1.054h-3.093v8.44zm6.205 0h-1.211V26.2h3.91c.944 0 1.688.275 2.233.826.544.55.817 1.229.817 2.035 0 .807-.278 1.485-.832 2.036-.545.55-1.284.826-2.218.826h-2.699v3.772zm2.553-4.826c.574 0 1.041-.166 1.401-.498.36-.342.54-.778.54-1.31 0-.531-.18-.963-.54-1.295-.36-.342-.827-.512-1.401-.512h-2.553v3.615h2.553zm12.296 4.826h-1.386l-.861-2.107h-4.844l-.86 2.107h-1.386l3.91-9.495h1.502l3.925 9.495zm-2.612-3.16l-2.057-5.11-2.071 5.11h4.128zm11.558 3.16h-1.503l-3.691-4.27-.977 1.081v3.189h-1.211V26.2h1.211v4.911l4.304-4.91h1.517l-4.056 4.512 4.406 4.982zm9.463 1.751v-1.751h-7.791V26.2h1.211v8.441h5.69v-8.44h1.211v8.44h.89v2.804h-1.211zm4.211-1.751h-1.167V26.2h1.211v7.416l5.602-7.416h1.24v9.495h-1.211v-7.573l-5.675 7.573zm13.889.171c-1.43 0-2.592-.465-3.487-1.395-.895-.93-1.342-2.102-1.342-3.516 0-1.414.447-2.586 1.342-3.516.895-.93 2.057-1.395 3.487-1.395 1.42 0 2.578.465 3.472 1.395.905.93 1.357 2.102 1.357 3.516 0 1.414-.452 2.585-1.357 3.515-.894.93-2.052 1.396-3.472 1.396zm0-1.054c1.07 0 1.931-.36 2.582-1.082.662-.73.993-1.656.993-2.775 0-1.13-.331-2.055-.993-2.776-.651-.721-1.512-1.082-2.582-1.082-1.079 0-1.945.36-2.597 1.082-.651.721-.977 1.646-.977 2.776 0 1.12.326 2.045.977 2.775.652.721 1.518 1.082 2.597 1.082zm15.124.883h-1.211V31.34h-5.69v4.356h-1.211V26.2h1.211v4.085h5.69V26.2h1.211v9.495zm10.678 0h-1.211V31.34h-5.689v4.356h-1.211V26.2h1.211v4.085h5.689V26.2h1.211v9.495zm2.567-9.495h1.211v3.772h2.699c.933 0 1.673.276 2.217.826.555.55.832 1.229.832 2.035 0 .807-.272 1.486-.817 2.036-.545.55-1.289.826-2.232.826h-3.91V26.2zm3.764 4.826h-2.553v3.615h2.553c.574 0 1.041-.166 1.4-.498.36-.341.54-.778.54-1.31 0-.53-.18-.963-.54-1.295-.359-.341-.826-.512-1.4-.512zm5.456 4.669h-1.211V26.2h1.211v9.495zm3.736 0h-1.167V26.2h1.211v7.416l5.603-7.416h1.24v9.495h-1.211v-7.573l-5.676 7.573zm5.413-11.288c-.632.835-1.483 1.252-2.553 1.252-1.06 0-1.916-.417-2.568-1.252l.54-.456c.506.683 1.182 1.025 2.028 1.025.856 0 1.527-.342 2.013-1.025l.54.456zm11.042 11.459c-.817 0-1.552-.148-2.203-.442-.652-.294-1.138-.669-1.459-1.124l.715-.755c.291.38.7.688 1.225.925a4.276 4.276 0 001.692.342c.759 0 1.357-.157 1.795-.47.438-.322.656-.759.656-1.31 0-.569-.228-.99-.685-1.266-.448-.275-1.06-.413-1.838-.413h-1.985v-1.053h1.985c.69 0 1.254-.128 1.692-.385.447-.265.671-.66.671-1.181 0-.512-.224-.911-.671-1.196-.438-.284-.992-.427-1.663-.427-1.099 0-2.019.385-2.758 1.153l-.671-.74a4.254 4.254 0 011.488-1.053 4.895 4.895 0 012.028-.413c.992 0 1.819.228 2.48.683.672.456 1.007 1.072 1.007 1.85 0 .627-.219 1.13-.656 1.51a2.97 2.97 0 01-1.445.697c.535.047 1.041.275 1.517.683.487.408.73.959.73 1.651 0 .798-.336 1.452-1.007 1.965-.671.512-1.551.769-2.64.769zm14.195-.171h-1.386l-.861-2.107h-4.844l-.86 2.107h-1.386l3.91-9.495h1.502l3.925 9.495zm-2.612-3.16l-2.057-5.11-2.071 5.11h4.128zm8.611 3.16h-4.435V26.2h4.333c.836 0 1.498.223 1.984.67.496.445.744 1.029.744 1.75 0 .57-.165 1.053-.496 1.452a2.09 2.09 0 01-1.211.726c.516.076.958.342 1.328.797.379.456.569.968.569 1.537 0 .77-.253 1.39-.759 1.865-.496.465-1.182.698-2.057.698zm-.306-5.381c.535 0 .948-.142 1.24-.427.292-.285.437-.65.437-1.096 0-.446-.15-.812-.452-1.096-.292-.294-.7-.441-1.225-.441h-2.918v3.06h2.918zm.058 4.327c.564 0 1.007-.147 1.328-.441.321-.294.481-.693.481-1.196 0-.465-.16-.854-.481-1.167-.312-.313-.754-.47-1.328-.47h-2.976v3.274h2.976zm9.715 1.225c-1.43 0-2.592-.465-3.487-1.395-.895-.93-1.342-2.102-1.342-3.516 0-1.414.447-2.586 1.342-3.516.895-.93 2.057-1.395 3.487-1.395 1.42 0 2.578.465 3.472 1.395.905.93 1.357 2.102 1.357 3.516 0 1.414-.452 2.585-1.357 3.515-.894.93-2.052 1.396-3.472 1.396zm0-1.054c1.07 0 1.931-.36 2.583-1.082.661-.73.992-1.656.992-2.775 0-1.13-.331-2.055-.992-2.776-.652-.721-1.513-1.082-2.583-1.082-1.079 0-1.945.36-2.597 1.082-.651.721-.977 1.646-.977 2.776 0 1.12.326 2.045.977 2.775.652.721 1.518 1.082 2.597 1.082zm5.8 2.634v-2.705c.428-.028.768-.128 1.021-.299.253-.17.482-.531.686-1.082.214-.55.389-1.347.525-2.391l.598-4.769h5.953v8.441h.89v2.804h-1.211v-1.75h-7.251v1.75h-1.211zm3.429-6.392c-.224 1.832-.72 3.027-1.489 3.587h5.632v-7.387h-3.662l-.481 3.8z" fill="#F2F2F2"/></g><defs><clipPath id="clip0"><path fill="#fff" d="M0 0h290v42H0z"/></clipPath></defs></svg>