<svg width="29" height="41" fill="none" xmlns="http://www.w3.org/2000/svg"><path d="M19.586 30.861c.717 1.592 1.076 3.253.789 5.12-.861 5.952-8.179 5.675-12.483 3.53C3.085 37.158 0 32.314 0 27.125c0-5.12 3.659-10.587 6.17-14.877a215.294 215.294 0 014.735-7.473C11.98 3.252 12.985 1.59 14.492 0c-1.507 2.283-2.87 5.536-3.3 7.127-.646 2.422-1.076 5.19-.933 7.68.215 3.807 2.08 6.298 4.52 9.273 1.794 2.145 3.73 4.29 4.807 6.781z" fill="#9FBE37"/><path d="M9.614 30.861c-.933 1.454-1.507 3.253-1.22 5.12.86 5.952 8.179 5.675 12.483 3.53 5.524-2.699 9.04-8.926 7.39-14.808-1.507-5.466-7.318-8.788-8.538-14.324.144 2.699 1.292 4.844 1.148 7.681-.215 4.221-1.65 6.574-5.452 8.442-2.511 1.245-4.448 2.145-5.811 4.36z" fill="#F9EA37"/><path d="M16.357 26.018c-.287.207-.645.346-1.004.553-2.511 1.246-4.376 2.076-5.811 4.29-.933 1.453-1.507 3.253-1.22 5.12.502 3.391 3.085 4.775 6.027 4.914 2.94-.139 5.524-1.523 6.026-4.913.287-1.868-.072-3.53-.79-5.12-.788-1.73-1.936-3.322-3.228-4.844z" fill="#C9D244"/></svg>