<svg width="21" height="21" fill="none" xmlns="http://www.w3.org/2000/svg"><g clip-path="url(#clip0)"><path d="M3.51 12.886c.435.142.834.225 1.206.27a6.313 6.313 0 00-.818.928c-1.58 2.175-.176 5.733-.115 5.883.043.108.115.2.209.268.894.65 2.007.695 3.057.344 1.069-.357 2.071-1.122 2.822-2.156.27-.37.472-.724.629-1.065.157.34.36.694.63 1.065 1.153 1.586 3.756 2.052 5.56 1.928a.615.615 0 00.32-.116c.83-.603 1.281-1.598 1.271-2.801-.009-1.127-.427-2.317-1.178-3.35a6.232 6.232 0 00-.828-.936c.339-.047.706-.13 1.114-.262 2.552-.83 3.55-4.528 3.59-4.685a.615.615 0 00-.01-.346c-.316-.976-1.13-1.713-2.293-2.076-1.086-.34-2.353-.309-3.568.086a6.144 6.144 0 00-1.02.432c.066-.352.104-.738.104-1.172 0-2.688-3.227-4.742-3.365-4.828a.615.615 0 00-.326-.094c-1.026 0-1.976.54-2.676 1.519-.655.917-1.015 2.125-1.015 3.403 0 .42.036.794.099 1.137a5.497 5.497 0 00-.935-.397C3.418 5.035.468 7.469.344 7.573a.615.615 0 00-.191.282c-.65 1.999.825 4.209 3.356 5.031zM8.874 17.7c-.6.828-1.388 1.436-2.215 1.712-.685.229-1.318.2-1.802-.08-.352-.978-.886-3.256.036-4.525.687-.946 1.348-1.316 2.307-1.805.9-.137 1.789-.232 3.087.15-.622 1.79-.252 2.95-1.413 4.548zm.95-6.851c.32-.108.61-.225.873-.349.202.271.402.511.601.726-.195.275-.361.54-.503.794a8.558 8.558 0 00-.911-.232 8.529 8.529 0 00-.06-.94zm7.226 6.595c.006.722-.218 1.314-.633 1.689-1.038.032-3.37-.164-4.292-1.433-.725-.998-.854-1.806-1.002-2.741l-.002-.011c.147-.898.332-1.773 1.096-2.89 1.51 1.144 2.729 1.152 3.89 2.75.6.827.936 1.763.943 2.636zM15.488 7.035c.96-.312 1.989-.342 2.821-.082.697.218 1.197.611 1.427 1.117-.216.688-1.083 3.112-2.727 3.646-1.124.365-1.796.268-2.825.105-.81-.419-1.586-.867-2.414-1.944 1.545-1.1 1.85-2.235 3.718-2.842zM8.826 2.437c.42-.588.949-.935 1.505-.994.86.584 2.63 2.113 2.63 3.682 0 1.186-.343 1.906-.75 2.71-.659.679-1.298 1.32-2.64 1.8C9.02 7.821 8.04 7.1 8.04 5.124c0-1.023.28-1.978.786-2.688zM1.278 8.4c.82-.636 2.824-1.85 4.316-1.365 1.15.374 1.536.915 2.246 1.635.408.813.773 1.63.811 2.984-1.887-.038-2.888.67-4.762.062C2.405 11.234.943 9.892 1.278 8.4z" fill="#fff"/></g><defs><clipPath id="clip0"><path fill="#fff" d="M0 0h21v21H0z"/></clipPath></defs></svg>