<svg width="21" height="21" fill="none" xmlns="http://www.w3.org/2000/svg"><g clip-path="url(#clip0)" fill="#fff"><path d="M10.5 7.65a2.854 2.854 0 00-2.85 2.85 2.854 2.854 0 002.85 2.85 2.854 2.854 0 002.85-2.85 2.854 2.854 0 00-2.85-2.85zm0 4.47c-.893 0-1.62-.727-1.62-1.62 0-.893.727-1.62 1.62-1.62.893 0 1.62.727 1.62 1.62 0 .893-.727 1.62-1.62 1.62z"/><path d="M21 10.5l-.435-.435a5.88 5.88 0 00-2.707-1.536 5.88 5.88 0 001.576-2.684l.16-.595-.595-.159a5.88 5.88 0 00-3.112.023 5.88 5.88 0 00.023-3.113l-.16-.594-.594.16a5.88 5.88 0 00-2.684 1.576A5.88 5.88 0 0010.936.436L10.5 0l-.435.435a5.88 5.88 0 00-1.537 2.708 5.88 5.88 0 00-2.684-1.577l-.594-.159-.16.594a5.88 5.88 0 00.024 3.113 5.88 5.88 0 00-3.113-.023l-.594.16.159.593A5.88 5.88 0 003.144 8.53a5.88 5.88 0 00-2.708 1.536l-.435.435.435.435a5.88 5.88 0 002.708 1.536 5.88 5.88 0 00-1.577 2.684l-.16.595.595.159a5.91 5.91 0 003.113-.023A5.88 5.88 0 005.092 19l.159.594.594-.16a5.879 5.879 0 002.684-1.576 5.88 5.88 0 001.537 2.707L10.5 21l.435-.436a5.88 5.88 0 001.536-2.707 5.88 5.88 0 002.684 1.577l.594.159.16-.594a5.88 5.88 0 00-.024-3.113 5.906 5.906 0 003.113.023l.595-.16-.16-.593a5.88 5.88 0 00-1.576-2.685 5.88 5.88 0 002.707-1.536L21 10.5zm-2.973-4.346a4.664 4.664 0 01-1.47 1.873 6.55 6.55 0 00-.889-1.534 4.66 4.66 0 012.36-.339zm-7.526 9.658A5.318 5.318 0 015.189 10.5a5.318 5.318 0 015.312-5.312 5.318 5.318 0 015.311 5.312 5.318 5.318 0 01-5.311 5.312zm4.345-12.839a4.664 4.664 0 01-.338 2.36 6.547 6.547 0 00-1.534-.889 4.663 4.663 0 011.872-1.47zM10.501 1.81c.48.646.787 1.41.886 2.21a6.564 6.564 0 00-1.772 0c.099-.8.404-1.564.886-2.21zM6.155 2.973a4.66 4.66 0 011.872 1.471 6.545 6.545 0 00-1.533.888 4.662 4.662 0 01-.339-2.359zM2.974 6.154a4.663 4.663 0 012.36.339 6.49 6.49 0 00-.89 1.534 4.664 4.664 0 01-1.47-1.873zm1.045 3.46a6.573 6.573 0 000 1.772 4.665 4.665 0 01-2.21-.886 4.662 4.662 0 012.21-.886zm-1.045 5.232a4.663 4.663 0 011.47-1.873 6.51 6.51 0 00.89 1.534 4.662 4.662 0 01-2.36.339zm3.181 3.18c-.094-.8.024-1.616.339-2.358.465.361.98.661 1.533.888a4.663 4.663 0 01-1.872 1.47zm4.346 1.165a4.664 4.664 0 01-.886-2.21 6.559 6.559 0 001.772 0c-.1.8-.405 1.564-.886 2.21zm4.345-1.164a4.663 4.663 0 01-1.872-1.471 6.544 6.544 0 001.534-.889c.315.743.432 1.559.338 2.36zm3.181-3.181a4.661 4.661 0 01-2.359-.339c.362-.465.662-.98.889-1.534a4.665 4.665 0 011.47 1.873zm-1.045-3.46a6.576 6.576 0 000-1.772c.8.099 1.564.405 2.21.886a4.661 4.661 0 01-2.21.886z"/></g><defs><clipPath id="clip0"><path fill="#fff" d="M0 0h21v21H0z"/></clipPath></defs></svg>