<svg width="21" height="21" viewBox="0 0 21 21" fill="none" xmlns="http://www.w3.org/2000/svg">
<path d="M17.4907 13.1598C19.6723 12.4504 20.8706 10.0985 20.1615 7.91522C19.4358 5.70338 17.0792 4.54335 14.9163 5.24539C14.8334 5.27224 14.7539 5.29824 14.6784 5.32269C14.6816 5.24045 14.6837 5.15786 14.6837 5.07503C14.6837 2.78072 12.8177 0.914062 10.524 0.914062C8.25471 0.914062 6.36121 2.74496 6.36121 5.07503V5.3263C6.28427 5.29812 6.20674 5.27079 6.12836 5.24539C3.94819 4.53745 1.59501 5.73565 0.882973 7.91691C0.171781 10.1079 1.37191 12.4504 3.55738 13.1598C3.64033 13.1869 3.72003 13.2126 3.79552 13.2373C3.74435 13.3023 3.69403 13.3682 3.64515 13.4354C3.64081 13.4414 3.6366 13.4474 3.63275 13.4534C2.28585 15.3256 2.72193 17.9042 4.5627 19.2465C4.5751 19.2557 4.58786 19.2641 4.60099 19.2721C6.74841 20.8001 9.25727 19.87 10.3791 18.3269L10.5258 18.1252C10.571 18.193 10.6175 18.2603 10.6657 18.3267C10.6763 18.3411 10.6874 18.3551 10.6989 18.3683C12.1277 20.2853 14.7221 20.5236 16.4781 19.2478C16.4834 19.2441 16.4885 19.2404 16.4934 19.2364C18.3352 17.886 18.7558 15.3011 17.3997 13.4356L17.2515 13.2314C17.3204 13.2119 17.3896 13.1913 17.4584 13.1694C17.4693 13.1665 17.48 13.1634 17.4907 13.1598ZM15.2726 6.34246C16.8331 5.83618 18.5388 6.67006 19.0648 8.27316C19.5737 9.84015 18.7219 11.5472 17.1309 12.0628C15.8127 12.4912 14.4072 12.3806 13.1726 11.7512L12.741 11.5311C14.0357 11.2174 15.163 10.3591 15.7934 9.1493C15.9463 8.90634 15.8896 8.61353 15.7101 8.43426C15.4325 8.1565 14.9625 8.23825 14.7872 8.58355C14.225 9.6911 13.1127 10.4155 11.8864 10.5004C12.1756 10.211 12.5025 9.88409 12.8253 9.56167C13.6569 8.72935 14.229 7.70717 14.5013 6.59337C14.6778 6.53594 14.9501 6.44745 15.2726 6.34246ZM7.51474 5.07503C7.51474 3.40691 8.86597 2.06772 10.524 2.06772C12.1814 2.06772 13.53 3.41678 13.53 5.07515C13.53 6.46117 12.99 7.76496 12.0096 8.74585C11.8959 8.8595 11.7815 8.97376 11.6686 9.08658C11.7712 7.7469 11.2946 6.39688 10.3217 5.41973C10.0975 5.187 9.72405 5.18495 9.50167 5.40745C9.29122 5.6179 9.25474 5.98439 9.49854 6.22808C10.3784 7.10759 10.7232 8.39116 10.4245 9.58238C10.2385 9.21769 10.0285 8.80569 9.82157 8.3991C9.287 7.35067 8.49093 6.49043 7.51486 5.88711V5.07503H7.51474ZM1.97992 8.27413C2.49462 6.69727 4.19585 5.83089 5.77198 6.34246C7.09058 6.77096 8.16381 7.68755 8.79361 8.92283C8.86645 9.06587 8.93954 9.20938 9.01201 9.35157C7.76638 8.83928 6.33087 8.87744 5.09847 9.50544C4.75161 9.68207 4.67479 10.1502 4.95026 10.4253C5.12123 10.5961 5.39501 10.6557 5.63304 10.5277C6.7407 9.96825 8.064 10.0386 9.10207 10.6898L7.78696 10.8982C6.62452 11.0818 5.56056 11.5724 4.68527 12.3137C4.50876 12.2563 4.23666 12.1677 3.91375 12.0628C2.33401 11.55 1.46606 9.857 1.97992 8.27413ZM9.44593 17.6488C8.98023 18.2891 8.2641 18.7276 7.48091 18.8516C5.78378 19.1203 4.29457 17.9357 4.03921 16.3521C3.65105 13.8946 6.29029 12.3025 7.9672 12.0374L8.44241 11.9622C7.57398 12.9857 7.16727 14.357 7.37966 15.7182C7.41818 15.9994 7.65934 16.216 7.95107 16.216C8.30588 16.216 8.57629 15.8986 8.52079 15.5488C8.32599 14.3198 8.80084 13.0785 9.74199 12.29C9.67758 12.6961 9.60498 13.1544 9.53418 13.6043C9.34889 14.7667 9.48662 15.9309 9.92186 16.9936L9.44593 17.6488ZM16.4665 14.1137C17.4566 15.4756 17.132 17.3466 15.8002 18.3144C15.7958 18.3175 15.7914 18.3206 15.7871 18.3239C15.5703 18.4797 13.482 19.8846 11.5776 17.6191C10.7783 16.5021 10.4573 15.1425 10.6736 13.7846C10.6987 13.6264 10.7236 13.4673 10.7485 13.3097C11.4456 14.4441 12.6087 15.2517 13.9529 15.4789C14.3272 15.574 14.6701 15.2808 14.6701 14.922C14.6701 14.7392 14.5536 14.4064 14.1815 14.3475C12.954 14.1533 11.9219 13.317 11.464 12.1752L12.6489 12.7788C13.5537 13.2403 14.5338 13.4735 15.5211 13.4735C15.6768 13.4735 15.8327 13.4677 15.9885 13.4559L16.4665 14.1137Z" fill="white"/>
</svg>
