<svg width="290" height="42" viewBox="0 0 290 42" fill="none" xmlns="http://www.w3.org/2000/svg">
<g clip-path="url(#clip0)">
<path d="M19.5857 30.8613C20.3031 32.4528 20.6618 34.1135 20.3748 35.9818C19.5139 41.9327 12.1962 41.6559 7.89166 39.5108C3.08492 37.1582 0 32.3145 0 27.1248C0 22.0043 3.65886 16.5378 6.16985 12.2477C7.67644 9.75661 9.25477 7.26556 10.9048 4.77451C11.981 3.2522 12.9854 1.5915 14.492 0C12.9854 2.28346 11.6223 5.53567 11.1918 7.12717C10.5461 9.54903 10.1157 12.3169 10.2592 14.8079C10.4744 18.6137 12.3397 21.1047 14.7789 24.0802C16.5725 26.2252 18.5095 28.3703 19.5857 30.8613Z" fill="#9FBE37"/>
<path d="M9.61352 30.8614C8.68087 32.3145 8.10693 34.1136 8.3939 35.9819C9.25481 41.9327 16.5725 41.6559 20.8771 39.5108C26.4012 36.8122 29.9166 30.5846 28.2665 24.7029C26.76 19.2365 20.9488 15.9151 19.7292 10.3794C19.8727 13.078 21.0206 15.2231 20.8771 18.0601C20.6618 22.2811 19.227 24.6337 15.4247 26.502C12.9137 27.7475 10.9766 28.6471 9.61352 30.8614Z" fill="#F9EA37"/>
<path d="M16.3573 26.0176C16.0703 26.2252 15.7116 26.3636 15.3529 26.5711C12.8419 27.8167 10.9766 28.647 9.54174 30.8613C8.60909 32.3144 8.03515 34.1135 8.32212 35.9818C8.82432 39.3724 11.407 40.7563 14.3485 40.8947C17.2899 40.7563 19.8726 39.3724 20.3748 35.9818C20.6618 34.1135 20.3031 32.4528 19.5857 30.8613C18.7965 29.1314 17.6486 27.5399 16.3573 26.0176Z" fill="#C9D244"/>
<path d="M49.4388 18.5549C47.1266 18.5549 45.2961 17.8115 43.7547 16.4177C42.3096 14.931 41.5389 13.1655 41.5389 10.9354C41.5389 8.7053 42.3096 6.84689 43.7547 5.45309C45.1998 3.96636 47.1266 3.31592 49.4388 3.31592C51.7509 3.31592 53.6777 4.05928 55.1228 5.45309C56.5679 6.84689 57.3386 8.7053 57.3386 10.9354C57.3386 12.9796 56.6643 14.7451 55.3155 16.1389L56.4716 17.4398L54.2558 19.2053L53.0033 17.8115C51.8473 18.369 50.6912 18.5549 49.4388 18.5549ZM49.4388 15.7673C50.0168 15.7673 50.4985 15.6743 51.0765 15.4885L49.3424 13.6301L51.5582 11.8646L53.196 13.8159C53.6777 12.9796 53.9667 12.0504 53.9667 10.9354C53.9667 9.54159 53.5814 8.33362 52.7143 7.49734C51.8473 6.56813 50.7875 6.10353 49.3424 6.10353C47.8973 6.10353 46.8376 6.56813 45.9705 7.49734C45.1035 8.42654 44.7181 9.54159 44.7181 10.9354C44.7181 12.3292 45.1035 13.5372 45.9705 14.3734C46.9339 15.3027 48.09 15.7673 49.4388 15.7673Z" fill="white"/>
<path d="M74.6799 18.2763H71.019L70.0556 15.7674L64.4679 12.9798L62.6374 18.2763H58.9765L64.8532 3.50195H68.8995L74.6799 18.2763ZM69.1885 12.9798L66.78 6.56833L64.4679 12.9798H69.1885Z" fill="white"/>
<path d="M88.8418 18.2763H77.281V15.7674L84.4102 6.28957H77.281V3.50195H88.6491V6.0108L81.52 15.4887H88.8418V18.2763Z" fill="white"/>
<path d="M107.05 18.2763H103.389L102.426 15.7674L96.8382 12.9798L95.0077 18.2763H91.3468L97.2236 3.50195H101.27L107.05 18.2763ZM101.559 12.9798L99.1504 6.56833L96.8382 12.9798H101.559Z" fill="white"/>
<path d="M116.684 18.5549C114.372 18.5549 112.542 17.8115 111 16.4177C109.555 14.931 108.784 13.1655 108.784 10.9354C108.784 8.7053 109.555 6.84689 111 5.45309C112.445 3.96636 114.372 3.31592 116.684 3.31592C118.996 3.31592 120.923 4.05928 122.368 5.45309C123.813 6.84689 124.584 8.7053 124.584 10.9354C124.584 12.9796 123.91 14.7451 122.561 16.1389L123.717 17.4398L121.501 19.2053L120.249 17.8115C119.093 18.369 117.937 18.5549 116.684 18.5549ZM116.684 15.7673C117.262 15.7673 117.744 15.6743 118.322 15.4885L116.684 13.5372L118.9 11.7717L120.538 13.723C121.019 12.8867 121.309 11.9575 121.309 10.8425C121.309 9.44867 120.923 8.2407 120.056 7.40442C119.189 6.47521 118.129 6.01061 116.684 6.01061C115.239 6.01061 114.179 6.47521 113.312 7.40442C112.445 8.33362 112.06 9.44867 112.06 10.8425C112.06 12.2363 112.445 13.4442 113.312 14.2805C114.179 15.3027 115.239 15.7673 116.684 15.7673Z" fill="white"/>
<path d="M141.925 18.2763H138.264L137.301 15.7674L131.713 12.9798L129.883 18.2763H126.222L132.098 3.50195H136.145L141.925 18.2763ZM136.434 12.9798L134.025 6.56833L131.713 12.9798H136.434Z" fill="white"/>
<path d="M150.307 18.5549C147.609 18.5549 145.49 17.8115 143.852 16.2319L145.586 13.8159C146.935 15.1168 148.476 15.7673 150.403 15.7673C151.27 15.7673 151.848 15.5814 152.33 15.3027C152.812 15.0239 153.004 14.5593 153.004 14.0947C153.004 13.723 152.812 13.3513 152.33 13.0726C151.944 12.7938 151.366 12.608 150.692 12.515C150.018 12.4221 149.343 12.2363 148.573 12.0504C147.802 11.8646 147.127 11.5858 146.453 11.3071C145.779 11.0283 145.297 10.5637 144.815 10.0062C144.43 9.35575 144.141 8.7053 144.141 7.7761C144.141 6.47521 144.623 5.45309 145.682 4.61681C146.742 3.78052 148.091 3.31592 149.825 3.31592C152.234 3.31592 154.16 3.96636 155.702 5.36017L153.871 7.68318C152.715 6.56813 151.174 6.10353 149.44 6.10353C148.765 6.10353 148.187 6.19645 147.802 6.47521C147.417 6.75397 147.224 7.12566 147.224 7.59026C147.224 7.96194 147.417 8.2407 147.898 8.51946C148.284 8.79822 148.862 8.98406 149.536 9.07698C150.21 9.1699 150.885 9.35574 151.655 9.63451C152.426 9.82035 153.101 10.0991 153.775 10.3779C154.449 10.6566 154.931 11.1212 155.413 11.7717C155.798 12.4221 156.087 13.1655 156.087 14.0018C156.087 15.3956 155.605 16.6035 154.546 17.4398C153.775 18.0903 152.234 18.5549 150.307 18.5549Z" fill="white"/>
<path d="M166.685 18.2763H163.409V6.28957H158.977V3.50195H171.116V6.28957H166.685V18.2763Z" fill="white"/>
<path d="M182.292 18.2763H179.016V12.2365L173.14 3.50195H176.8L180.558 9.44886L184.315 3.50195H187.976L182.195 12.2365V18.2763H182.292Z" fill="white"/>
<path d="M197.513 18.5549C195.201 18.5549 193.371 17.8115 191.829 16.4177C190.384 14.931 189.614 13.1655 189.614 10.9354C189.614 8.7053 190.384 6.84689 191.829 5.45309C193.274 3.96636 195.201 3.31592 197.513 3.31592C199.826 3.31592 201.752 4.05928 203.197 5.45309C204.643 6.84689 205.413 8.7053 205.413 10.9354C205.413 12.9796 204.739 14.7451 203.39 16.1389L204.546 17.4398L202.33 19.2053L201.078 17.8115C200.018 18.369 198.766 18.5549 197.513 18.5549ZM197.513 15.7673C198.091 15.7673 198.573 15.6743 199.151 15.4885L197.513 13.5372L199.729 11.7717L201.367 13.723C201.849 12.8867 202.138 11.9575 202.138 10.8425C202.138 9.44867 201.752 8.2407 200.885 7.40442C200.018 6.47521 198.959 6.01061 197.513 6.01061C196.068 6.01061 195.009 6.47521 194.142 7.40442C193.274 8.33362 192.889 9.44867 192.889 10.8425C192.889 12.2363 193.274 13.4442 194.142 14.2805C195.009 15.3027 196.165 15.7673 197.513 15.7673Z" fill="white"/>
<path d="M216.396 18.555C214.18 18.555 212.35 17.9045 210.905 16.5107C209.46 15.1169 208.689 13.3514 208.689 11.2142C208.689 8.98416 209.46 7.21867 210.905 5.91778C212.35 4.52398 214.277 3.87354 216.396 3.87354C218.997 3.87354 221.02 4.89566 222.465 7.03283L219.864 8.42663C219.479 7.86911 218.997 7.40451 218.419 7.12575C217.841 6.84699 217.167 6.56823 216.396 6.56823C215.047 6.56823 213.988 7.03283 213.12 7.86911C212.253 8.7054 211.868 9.82044 211.868 11.2142C211.868 12.6081 212.253 13.7231 213.12 14.5594C213.988 15.3957 215.047 15.8603 216.396 15.8603C216.974 15.8603 217.552 15.7673 218.13 15.5815C218.708 15.3957 219.094 15.1169 219.479 14.8381V13.1656H215.625V10.4709H222.562V15.9532C221.02 17.7187 218.901 18.555 216.396 18.555Z" fill="white"/>
<path d="M226.705 10.5637H233.063C233.737 10.5637 234.219 10.3778 234.604 10.0061C234.99 9.63445 235.183 9.16985 235.183 8.61233C235.183 8.05481 234.99 7.5902 234.604 7.21852C234.219 6.84684 233.641 6.661 233.063 6.661H226.705V3.96631H233.545C235.086 3.96631 236.242 4.43091 237.109 5.26719C237.976 6.10348 238.458 7.21852 238.458 8.61233C238.458 9.82029 238.169 10.7495 237.495 11.3999C236.917 12.1433 236.146 12.6079 235.279 12.7937L238.554 18.1831H234.99L232.1 13.1654H229.787V18.1831H226.705V10.5637Z" fill="white"/>
<path d="M249.248 18.555C247.032 18.555 245.202 17.9045 243.757 16.5107C242.312 15.1169 241.637 13.3514 241.637 11.2142C241.637 9.07708 242.312 7.31159 243.757 5.91778C245.202 4.52398 247.032 3.87354 249.248 3.87354C251.464 3.87354 253.294 4.52398 254.739 5.91778C256.185 7.31159 256.859 9.07708 256.859 11.2142C256.859 13.3514 256.185 15.1169 254.739 16.5107C253.294 17.9045 251.464 18.555 249.248 18.555ZM246.069 14.5594C246.84 15.3957 247.899 15.8603 249.248 15.8603C250.597 15.8603 251.657 15.3957 252.427 14.5594C253.198 13.7231 253.68 12.6081 253.68 11.2142C253.68 9.82044 253.294 8.79832 252.427 7.86911C251.657 7.03283 250.5 6.56823 249.248 6.56823C247.996 6.56823 246.84 7.03283 246.069 7.86911C245.298 8.7054 244.816 9.82044 244.816 11.2142C244.913 12.5151 245.298 13.6302 246.069 14.5594Z" fill="white"/>
<path d="M272.177 16.9754C271.021 17.9975 269.383 18.555 267.264 18.555C265.144 18.555 263.506 17.9975 262.35 16.9754C261.194 15.8603 260.713 14.4665 260.713 12.701V4.15234H263.892V12.6081C263.892 13.6302 264.181 14.4665 264.759 15.024C265.337 15.5816 266.204 15.9532 267.264 15.9532C268.323 15.9532 269.19 15.6745 269.769 15.024C270.347 14.4665 270.636 13.6302 270.636 12.6081V4.15234H273.815V12.701C273.815 14.4665 273.333 15.8603 272.177 16.9754Z" fill="white"/>
<path d="M281.426 18.2759H278.343V4.05908H285.183C286.724 4.05908 287.881 4.52368 288.748 5.35997C289.615 6.19625 290 7.3113 290 8.61218C290 9.91307 289.518 11.0281 288.651 11.8644C287.784 12.7007 286.628 13.1653 285.087 13.1653H281.329V18.2759H281.426ZM284.701 10.5635C285.279 10.5635 285.857 10.3777 286.243 10.006C286.628 9.63431 286.821 9.16971 286.821 8.61218C286.821 8.05466 286.628 7.59006 286.243 7.21838C285.857 6.84669 285.376 6.66085 284.701 6.66085H281.426V10.4706L284.701 10.5635Z" fill="white"/>
<path d="M52.5789 35.6957H51.3679V27.8809L48.0562 35.6957H47.5601L44.2629 27.8809V35.6957H43.052V26.2012H44.7881L47.8081 33.347L50.8427 26.2012H52.5789V35.6957Z" fill="#F2F2F2"/>
<path d="M63.4712 35.6957H62.0852L61.2244 33.589H56.3808L55.52 35.6957H54.134L58.0439 26.2012H59.5467L63.4712 35.6957ZM60.8597 32.5356L58.8026 27.4254L56.7309 32.5356H60.8597Z" fill="#F2F2F2"/>
<path d="M69.1041 35.8665C67.684 35.8665 66.4926 35.411 65.5297 34.5C64.5765 33.5795 64.0999 32.398 64.0999 30.9556C64.0999 29.5131 64.5765 28.3364 65.5297 27.4254C66.4926 26.5049 67.684 26.0446 69.1041 26.0446C70.6603 26.0446 71.8906 26.671 72.7952 27.9236L71.7739 28.4787C71.4918 28.0707 71.1125 27.7385 70.6359 27.4823C70.1594 27.2261 69.6487 27.098 69.1041 27.098C68.0342 27.098 67.1394 27.4633 66.4196 28.1941C65.7096 28.9153 65.3546 29.8358 65.3546 30.9556C65.3546 32.0753 65.7096 33.0006 66.4196 33.7313C67.1394 34.4525 68.0342 34.8131 69.1041 34.8131C69.6487 34.8131 70.1594 34.6898 70.6359 34.443C71.1125 34.1868 71.4918 33.8499 71.7739 33.4324L72.8098 33.9875C71.8663 35.2402 70.6311 35.8665 69.1041 35.8665Z" fill="#F2F2F2"/>
<path d="M73.931 35.8665V34.8131C74.3492 34.8131 74.6896 34.7182 74.9522 34.5284C75.2148 34.3386 75.4483 33.9638 75.6525 33.4039C75.8568 32.8345 76.027 32.0231 76.1631 30.9698L76.7613 26.2012H82.7138V35.6957H81.5029V27.2546H77.8409L77.3595 31.0552C77.233 32.0706 77.0628 32.9057 76.8488 33.5605C76.6446 34.2153 76.3869 34.7087 76.0756 35.0409C75.7741 35.3635 75.458 35.5818 75.1273 35.6957C74.8063 35.8095 74.4076 35.8665 73.931 35.8665Z" fill="#F2F2F2"/>
<path d="M89.7154 35.8665C88.2857 35.8665 87.1234 35.4015 86.2286 34.4715C85.3337 33.5415 84.8863 32.3695 84.8863 30.9556C84.8863 29.5416 85.3337 28.3696 86.2286 27.4396C87.1234 26.5096 88.2857 26.0446 89.7154 26.0446C91.1354 26.0446 92.2929 26.5096 93.1877 27.4396C94.0922 28.3696 94.5445 29.5416 94.5445 30.9556C94.5445 32.3695 94.0922 33.5415 93.1877 34.4715C92.2929 35.4015 91.1354 35.8665 89.7154 35.8665ZM89.7154 34.8131C90.7853 34.8131 91.6461 34.4525 92.2977 33.7313C92.9591 33.0006 93.2898 32.0753 93.2898 30.9556C93.2898 29.8263 92.9591 28.901 92.2977 28.1798C91.6461 27.4586 90.7853 27.098 89.7154 27.098C88.6358 27.098 87.7702 27.4586 87.1185 28.1798C86.4669 28.901 86.141 29.8263 86.141 30.9556C86.141 32.0753 86.4669 33.0006 87.1185 33.7313C87.7702 34.4525 88.6358 34.8131 89.7154 34.8131Z" fill="#F2F2F2"/>
<path d="M99.704 35.8665C98.177 35.8665 96.9418 35.2402 95.9983 33.9875L97.0341 33.4324C97.3162 33.8499 97.6955 34.1868 98.1721 34.443C98.6487 34.6898 99.1593 34.8131 99.704 34.8131C100.706 34.8131 101.552 34.4952 102.243 33.8594C102.943 33.2141 103.337 32.3838 103.424 31.3684H98.0846V30.315H103.395C103.259 29.3565 102.85 28.5831 102.17 27.9948C101.489 27.3969 100.667 27.098 99.704 27.098C99.1593 27.098 98.6487 27.2261 98.1721 27.4823C97.6955 27.7385 97.3162 28.0707 97.0341 28.4787L96.0129 27.9236C96.9174 26.671 98.1478 26.0446 99.704 26.0446C101.124 26.0446 102.311 26.5049 103.264 27.4254C104.227 28.3364 104.708 29.5131 104.708 30.9556C104.708 32.398 104.227 33.5795 103.264 34.5C102.311 35.411 101.124 35.8665 99.704 35.8665Z" fill="#F2F2F2"/>
<path d="M114.261 35.6957H112.758L109.067 31.4253L108.09 32.5071V35.6957H106.879V26.2012H108.09V31.1121L112.394 26.2012H113.911L109.855 30.7136L114.261 35.6957Z" fill="#F2F2F2"/>
<path d="M119.759 35.8665C118.339 35.8665 117.148 35.411 116.185 34.5C115.232 33.5795 114.755 32.398 114.755 30.9556C114.755 29.5131 115.232 28.3364 116.185 27.4254C117.148 26.5049 118.339 26.0446 119.759 26.0446C121.316 26.0446 122.546 26.671 123.45 27.9236L122.429 28.4787C122.147 28.0707 121.768 27.7385 121.291 27.4823C120.815 27.2261 120.304 27.098 119.759 27.098C118.689 27.098 117.795 27.4633 117.075 28.1941C116.365 28.9153 116.01 29.8358 116.01 30.9556C116.01 32.0753 116.365 33.0006 117.075 33.7313C117.795 34.4525 118.689 34.8131 119.759 34.8131C120.304 34.8131 120.815 34.6898 121.291 34.443C121.768 34.1868 122.147 33.8499 122.429 33.4324L123.465 33.9875C122.522 35.2402 121.286 35.8665 119.759 35.8665Z" fill="#F2F2F2"/>
<path d="M128.918 35.6957H127.707V27.2546H124.629V26.2012H132.011V27.2546H128.918V35.6957Z" fill="#F2F2F2"/>
<path d="M135.123 35.6957H133.912V26.2012H137.822C138.766 26.2012 139.51 26.4764 140.055 27.0268C140.599 27.5772 140.872 28.2557 140.872 29.0624C140.872 29.869 140.594 30.5475 140.04 31.0979C139.495 31.6483 138.756 31.9235 137.822 31.9235H135.123V35.6957ZM137.676 30.8701C138.25 30.8701 138.717 30.7041 139.077 30.3719C139.437 30.0303 139.617 29.5938 139.617 29.0624C139.617 28.5309 139.437 28.0992 139.077 27.767C138.717 27.4254 138.25 27.2546 137.676 27.2546H135.123V30.8701H137.676Z" fill="#F2F2F2"/>
<path d="M149.972 35.6957H148.586L147.725 33.589H142.881L142.021 35.6957H140.635L144.545 26.2012H146.047L149.972 35.6957ZM147.36 32.5356L145.303 27.4254L143.232 32.5356H147.36Z" fill="#F2F2F2"/>
<path d="M158.918 35.6957H157.415L153.724 31.4253L152.747 32.5071V35.6957H151.536V26.2012H152.747V31.1121L157.051 26.2012H158.568L154.512 30.7136L158.918 35.6957Z" fill="#F2F2F2"/>
<path d="M168.381 37.4465V35.6957H160.59V26.2012H161.801V34.6423H167.491V26.2012H168.702V34.6423H169.592V37.4465H168.381Z" fill="#F2F2F2"/>
<path d="M172.592 35.6957H171.425V26.2012H172.636V33.6174L178.238 26.2012H179.478V35.6957H178.267V28.1229L172.592 35.6957Z" fill="#F2F2F2"/>
<path d="M186.481 35.8665C185.051 35.8665 183.889 35.4015 182.994 34.4715C182.099 33.5415 181.652 32.3695 181.652 30.9556C181.652 29.5416 182.099 28.3696 182.994 27.4396C183.889 26.5096 185.051 26.0446 186.481 26.0446C187.901 26.0446 189.059 26.5096 189.953 27.4396C190.858 28.3696 191.31 29.5416 191.31 30.9556C191.31 32.3695 190.858 33.5415 189.953 34.4715C189.059 35.4015 187.901 35.8665 186.481 35.8665ZM186.481 34.8131C187.551 34.8131 188.412 34.4525 189.063 33.7313C189.725 33.0006 190.056 32.0753 190.056 30.9556C190.056 29.8263 189.725 28.901 189.063 28.1798C188.412 27.4586 187.551 27.098 186.481 27.098C185.402 27.098 184.536 27.4586 183.884 28.1798C183.233 28.901 182.907 29.8263 182.907 30.9556C182.907 32.0753 183.233 33.0006 183.884 33.7313C184.536 34.4525 185.402 34.8131 186.481 34.8131Z" fill="#F2F2F2"/>
<path d="M201.605 35.6957H200.394V31.3399H194.704V35.6957H193.493V26.2012H194.704V30.2865H200.394V26.2012H201.605V35.6957Z" fill="#F2F2F2"/>
<path d="M212.283 35.6957H211.072V31.3399H205.383V35.6957H204.172V26.2012H205.383V30.2865H211.072V26.2012H212.283V35.6957Z" fill="#F2F2F2"/>
<path d="M214.85 26.2012H216.061V29.9734H218.76C219.693 29.9734 220.433 30.2486 220.977 30.799C221.532 31.3494 221.809 32.0279 221.809 32.8345C221.809 33.6411 221.537 34.3197 220.992 34.8701C220.447 35.4205 219.703 35.6957 218.76 35.6957H214.85V26.2012ZM218.614 31.0267H216.061V34.6423H218.614C219.188 34.6423 219.655 34.4762 220.014 34.1441C220.374 33.8025 220.554 33.3659 220.554 32.8345C220.554 32.3031 220.374 31.8713 220.014 31.5392C219.655 31.1975 219.188 31.0267 218.614 31.0267ZM224.07 35.6957H222.859V26.2012H224.07V35.6957Z" fill="#F2F2F2"/>
<path d="M227.806 35.6957H226.639V26.2012H227.85V33.6174L233.453 26.2012H234.693V35.6957H233.482V28.1229L227.806 35.6957ZM233.219 24.4077C232.587 25.2427 231.736 25.6603 230.666 25.6603C229.606 25.6603 228.75 25.2427 228.098 24.4077L228.638 23.9521C229.144 24.6354 229.82 24.977 230.666 24.977C231.522 24.977 232.193 24.6354 232.679 23.9521L233.219 24.4077Z" fill="#F2F2F2"/>
<path d="M244.261 35.8665C243.444 35.8665 242.709 35.7194 242.058 35.4252C241.406 35.131 240.92 34.7562 240.599 34.3007L241.314 33.5462C241.605 33.9258 242.014 34.2343 242.539 34.4715C243.074 34.6992 243.638 34.8131 244.231 34.8131C244.99 34.8131 245.588 34.6565 246.026 34.3434C246.464 34.0207 246.682 33.5842 246.682 33.0338C246.682 32.4644 246.454 32.0421 245.997 31.7669C245.549 31.4917 244.937 31.3541 244.159 31.3541H242.174V30.3008H244.159C244.849 30.3008 245.413 30.1727 245.851 29.9164C246.298 29.6507 246.522 29.2569 246.522 28.735C246.522 28.2225 246.298 27.824 245.851 27.5393C245.413 27.2546 244.859 27.1122 244.188 27.1122C243.089 27.1122 242.169 27.4966 241.43 28.2652L240.759 27.525C241.148 27.0885 241.644 26.7374 242.247 26.4717C242.86 26.1965 243.536 26.0589 244.275 26.0589C245.267 26.0589 246.094 26.2866 246.755 26.7421C247.427 27.1976 247.762 27.8145 247.762 28.5926C247.762 29.2189 247.543 29.7219 247.106 30.1015C246.678 30.4716 246.196 30.7041 245.661 30.799C246.196 30.8464 246.702 31.0742 247.178 31.4822C247.665 31.8903 247.908 32.4407 247.908 33.1334C247.908 33.9306 247.572 34.5854 246.901 35.0978C246.23 35.6103 245.35 35.8665 244.261 35.8665Z" fill="#F2F2F2"/>
<path d="M258.456 35.6957H257.07L256.209 33.589H251.365L250.505 35.6957H249.119L253.029 26.2012H254.531L258.456 35.6957ZM255.844 32.5356L253.787 27.4254L251.716 32.5356H255.844Z" fill="#F2F2F2"/>
<path d="M264.455 35.6957H260.02V26.2012H264.353C265.189 26.2012 265.851 26.4242 266.337 26.8702C266.833 27.3163 267.081 27.8999 267.081 28.6211C267.081 29.1905 266.916 29.6744 266.585 30.073C266.254 30.4621 265.851 30.7041 265.374 30.799C265.89 30.8749 266.332 31.1406 266.702 31.5961C267.081 32.0516 267.271 32.5641 267.271 33.1334C267.271 33.9021 267.018 34.5237 266.512 34.9982C266.016 35.4632 265.33 35.6957 264.455 35.6957ZM264.149 30.315C264.684 30.315 265.097 30.1727 265.389 29.888C265.681 29.6033 265.826 29.2379 265.826 28.7919C265.826 28.3459 265.676 27.9805 265.374 27.6958C265.082 27.4017 264.674 27.2546 264.149 27.2546H261.231V30.315H264.149ZM264.207 34.6423C264.771 34.6423 265.214 34.4952 265.535 34.201C265.856 33.9069 266.016 33.5083 266.016 33.0053C266.016 32.5403 265.856 32.1513 265.535 31.8381C265.223 31.5249 264.781 31.3684 264.207 31.3684H261.231V34.6423H264.207Z" fill="#F2F2F2"/>
<path d="M273.922 35.8665C272.492 35.8665 271.33 35.4015 270.435 34.4715C269.54 33.5415 269.093 32.3695 269.093 30.9556C269.093 29.5416 269.54 28.3696 270.435 27.4396C271.33 26.5096 272.492 26.0446 273.922 26.0446C275.342 26.0446 276.5 26.5096 277.394 27.4396C278.299 28.3696 278.751 29.5416 278.751 30.9556C278.751 32.3695 278.299 33.5415 277.394 34.4715C276.5 35.4015 275.342 35.8665 273.922 35.8665ZM273.922 34.8131C274.992 34.8131 275.853 34.4525 276.505 33.7313C277.166 33.0006 277.497 32.0753 277.497 30.9556C277.497 29.8263 277.166 28.901 276.505 28.1798C275.853 27.4586 274.992 27.098 273.922 27.098C272.843 27.098 271.977 27.4586 271.325 28.1798C270.674 28.901 270.348 29.8263 270.348 30.9556C270.348 32.0753 270.674 33.0006 271.325 33.7313C271.977 34.4525 272.843 34.8131 273.922 34.8131Z" fill="#F2F2F2"/>
<path d="M279.722 37.4465V34.742C280.15 34.7135 280.49 34.6138 280.743 34.443C280.996 34.2722 281.225 33.9116 281.429 33.3612C281.643 32.8108 281.818 32.0137 281.954 30.9698L282.552 26.2012H288.505V34.6423H289.395V37.4465H288.184V35.6957H280.933V37.4465H279.722ZM283.151 31.0552C282.927 32.8867 282.431 34.0824 281.662 34.6423H287.294V27.2546H283.632L283.151 31.0552Z" fill="#F2F2F2"/>
</g>
<defs>
<clipPath id="clip0">
<rect width="290" height="42" fill="white"/>
</clipPath>
</defs>
</svg>
