<svg width="29" height="41" viewBox="0 0 29 41" fill="none" xmlns="http://www.w3.org/2000/svg">
<path d="M19.5857 30.8613C20.3031 32.4528 20.6618 34.1135 20.3748 35.9818C19.5139 41.9327 12.1962 41.6559 7.89166 39.5108C3.08492 37.1582 0 32.3145 0 27.1248C0 22.0043 3.65886 16.5378 6.16985 12.2477C7.67644 9.75661 9.25477 7.26556 10.9048 4.77451C11.981 3.2522 12.9854 1.5915 14.492 0C12.9854 2.28346 11.6223 5.53567 11.1918 7.12717C10.5461 9.54903 10.1157 12.3169 10.2592 14.8079C10.4744 18.6137 12.3397 21.1047 14.7789 24.0802C16.5725 26.2252 18.5095 28.3703 19.5857 30.8613Z" fill="#9FBE37"/>
<path d="M9.61352 30.8614C8.68087 32.3145 8.10693 34.1136 8.3939 35.9819C9.25481 41.9327 16.5725 41.6559 20.8771 39.5108C26.4012 36.8122 29.9166 30.5846 28.2665 24.7029C26.76 19.2365 20.9488 15.9151 19.7292 10.3794C19.8727 13.078 21.0206 15.2231 20.8771 18.0601C20.6618 22.2811 19.227 24.6337 15.4247 26.502C12.9137 27.7475 10.9766 28.6471 9.61352 30.8614Z" fill="#F9EA37"/>
<path d="M16.3573 26.0176C16.0703 26.2252 15.7116 26.3636 15.3529 26.5711C12.8419 27.8167 10.9766 28.647 9.54174 30.8613C8.60909 32.3144 8.03515 34.1135 8.32212 35.9818C8.82432 39.3724 11.407 40.7563 14.3485 40.8947C17.2899 40.7563 19.8726 39.3724 20.3748 35.9818C20.6618 34.1135 20.3031 32.4528 19.5857 30.8613C18.7965 29.1314 17.6486 27.5399 16.3573 26.0176Z" fill="#C9D244"/>
</svg>
