<svg width="21" height="21" viewBox="0 0 21 21" fill="none" xmlns="http://www.w3.org/2000/svg">
<g clip-path="url(#clip0)">
<path d="M3.50919 12.8861C3.94528 13.0278 4.34413 13.1114 4.71636 13.1551C4.44178 13.4096 4.16855 13.7123 3.89844 14.0841C2.31854 16.2586 3.72221 19.8168 3.78275 19.9673C3.82589 20.0745 3.89836 20.1674 3.99187 20.2353C4.88636 20.8852 5.99925 20.9298 7.04934 20.5792C8.11801 20.2224 9.12004 19.4568 9.8709 18.4233C10.1404 18.0524 10.3432 17.6989 10.4998 17.3584C10.657 17.6982 10.8604 18.0516 11.1305 18.4233C12.2827 20.0092 14.8859 20.4751 16.69 20.3514C16.8053 20.3435 16.916 20.3033 17.0095 20.2353C17.8394 19.6324 18.2911 18.6374 18.2814 17.4338C18.2723 16.3071 17.8537 15.1175 17.103 14.0841C16.8303 13.7088 16.5536 13.404 16.2749 13.148C16.6138 13.1013 16.9807 13.0187 17.3889 12.8861C19.9411 12.0568 20.9387 8.35805 20.9799 8.20101C21.0098 8.08699 21.0064 7.96683 20.9699 7.85474C20.653 6.87929 19.8384 6.14204 18.6762 5.77883C17.5903 5.43949 16.3231 5.47017 15.1076 5.86508C14.7198 5.99107 14.3847 6.13691 14.088 6.29654C14.1535 5.9453 14.1919 5.55908 14.1919 5.12467C14.1919 2.43681 10.9648 0.383172 10.8274 0.297045C10.7295 0.235648 10.6163 0.203125 10.5007 0.203125C9.47497 0.203125 8.5247 0.742568 7.8251 1.72204C7.17025 2.63884 6.80958 3.84724 6.80958 5.12467C6.80958 5.54432 6.84616 5.9193 6.90863 6.26159C6.64089 6.11596 6.33432 5.98201 5.97435 5.86504C3.41785 5.03444 0.467631 7.46901 0.34328 7.57302C0.254651 7.64717 0.188703 7.74482 0.15298 7.85474C-0.496459 9.85354 0.977791 12.0636 3.50919 12.8861ZM8.87548 17.7C8.27407 18.5278 7.48715 19.1358 6.65968 19.4121C5.97456 19.6408 5.3421 19.6114 4.85757 19.3322C4.50597 18.3544 3.97202 16.0761 4.89391 14.8072C5.58149 13.8608 6.24241 13.4911 7.20121 13.0017C8.10021 12.8648 8.9897 12.7705 10.2878 13.1518C9.66629 14.9425 10.0359 16.1029 8.87548 17.7ZM9.82444 10.8485C10.1448 10.7405 10.4345 10.6237 10.6981 10.5002C10.8996 10.7714 11.1002 11.0115 11.2994 11.2255C11.1041 11.5006 10.9379 11.7653 10.7961 12.0205C10.4742 11.9198 10.1711 11.8436 9.88452 11.7875C9.88087 11.4502 9.85971 11.1384 9.82444 10.8485ZM17.051 17.4437C17.0569 18.1659 16.8334 18.7583 16.4182 19.133C15.3797 19.1652 13.0478 18.9689 12.1259 17.7001C11.4009 16.7022 11.2723 15.8943 11.1235 14.9588L11.1217 14.9478C11.2693 14.0505 11.4545 13.1754 12.2183 12.0586C13.7277 13.2019 14.9467 13.2096 16.1075 14.8073C16.7089 15.635 17.044 16.5713 17.051 17.4437ZM15.4877 7.03526C16.4486 6.72307 17.477 6.69317 18.3091 6.95323C19.0062 7.17109 19.5058 7.56412 19.7358 8.07038C19.52 8.75829 18.6532 11.1816 17.0086 11.716C15.8852 12.081 15.2126 11.9842 14.1843 11.8206C13.3746 11.402 12.5978 10.9544 11.7696 9.87745C13.3151 8.77667 13.6209 7.64184 15.4877 7.03526ZM8.82622 2.43722C9.24603 1.84946 9.77502 1.50151 10.3311 1.44253C11.1902 2.02685 12.9614 3.55622 12.9614 5.12471C12.9614 6.31085 12.6184 7.03075 12.2102 7.83505C11.5523 8.51373 10.9128 9.15468 9.57065 9.63437C9.02153 7.8223 8.03988 7.09977 8.03988 5.12471C8.03993 4.10157 8.31918 3.14715 8.82622 2.43722ZM1.27788 8.40013C2.0983 7.76385 4.10166 6.55036 5.59408 7.03526C6.74355 7.40876 7.12977 7.95001 7.83966 8.67024C8.24798 9.4834 8.61296 10.3003 8.65143 11.6536C6.7636 11.616 5.76256 12.3246 3.88938 11.7159C2.40504 11.2336 0.942561 9.89185 1.27788 8.40013Z" fill="white"/>
</g>
<defs>
<clipPath id="clip0">
<rect width="21" height="21" fill="white"/>
</clipPath>
</defs>
</svg>
