<svg width="21" height="21" viewBox="0 0 21 21" fill="none" xmlns="http://www.w3.org/2000/svg">
<g clip-path="url(#clip0)">
<path d="M10.5 7.64941C8.9282 7.64941 7.64941 8.9282 7.64941 10.5C7.64941 12.0718 8.9282 13.3506 10.5 13.3506C12.0718 13.3506 13.3506 12.0718 13.3506 10.5C13.3506 8.9282 12.0718 7.64941 10.5 7.64941ZM10.5 12.1201C9.60668 12.1201 8.87988 11.3933 8.87988 10.5C8.87988 9.60668 9.60668 8.87988 10.5 8.87988C11.3933 8.87988 12.1201 9.60668 12.1201 10.5C12.1201 11.3933 11.3933 12.1201 10.5 12.1201Z" fill="white"/>
<path d="M21.0002 10.5L20.5652 10.065C19.8141 9.31387 18.8735 8.78678 17.8578 8.52863C18.6083 7.79723 19.1594 6.87061 19.4343 5.84456L19.5935 5.25029L18.9993 5.09102C17.9731 4.8161 16.8951 4.83 15.8865 5.11428C16.1707 4.10562 16.1846 3.02757 15.9097 2.00144L15.7504 1.40716L15.1562 1.56639C14.1301 1.84131 13.2034 2.3924 12.472 3.14295C12.2138 2.12728 11.6868 1.18666 10.9357 0.435545L10.5006 0L10.0656 0.435463C9.31448 1.18658 8.78747 2.12715 8.52931 3.14286C7.79792 2.39236 6.87126 1.84127 5.84517 1.5663L5.25089 1.40708L5.09163 2.00132C4.8167 3.02745 4.83057 4.1055 5.11485 5.11412C4.10619 4.82984 3.02813 4.81593 2.00205 5.0909L1.40777 5.25016L1.56699 5.8444C1.84192 6.87053 2.39301 7.79723 3.14355 8.52863C2.12784 8.78678 1.18723 9.31379 0.436151 10.0649L0.00109863 10.5L0.43611 10.935C1.18731 11.6862 2.12788 12.2131 3.14355 12.4713C2.39301 13.2027 1.84192 14.1293 1.56695 15.1555L1.40773 15.7498L2.00196 15.909C2.49817 16.042 3.0064 16.1074 3.51314 16.1074C4.05443 16.1074 4.59391 16.0324 5.11489 15.8856C4.83057 16.8943 4.81666 17.9725 5.09159 18.9986L5.25085 19.5929L5.84509 19.4337C6.87122 19.1588 7.79792 18.6077 8.52931 17.8571C8.78747 18.8728 9.31448 19.8134 10.0656 20.5645L10.5006 21L10.9357 20.5645C11.6868 19.8134 12.2138 18.8728 12.472 17.8571C13.2034 18.6076 14.13 19.1587 15.1561 19.4337L15.7504 19.5929L15.9097 18.9987C16.1846 17.9725 16.1707 16.8944 15.8864 15.8856C16.4074 16.0325 16.9469 16.1074 17.4882 16.1074C17.9949 16.1074 18.5032 16.0419 18.9993 15.9091L19.5935 15.7498L19.4343 15.1556C19.1593 14.1294 18.6082 13.2027 17.8577 12.4713C18.8734 12.2131 19.8141 11.6862 20.5652 10.935L21.0002 10.5ZM18.0275 6.15444C17.7088 6.89428 17.1998 7.54093 16.5567 8.02676C16.33 7.47374 16.0298 6.95838 15.6682 6.49298C16.4111 6.17806 17.2266 6.06022 18.0275 6.15444ZM10.5006 15.8115C7.57189 15.8115 5.18912 13.4288 5.18912 10.5C5.18912 7.57124 7.57189 5.18848 10.5006 5.18848C13.4294 5.18848 15.8122 7.57124 15.8122 10.5C15.8122 13.4288 13.4294 15.8115 10.5006 15.8115ZM14.8463 2.97318C14.9403 3.77413 14.8225 4.58957 14.5077 5.33248C14.0423 4.97081 13.5269 4.67065 12.9739 4.44396C13.4597 3.80084 14.1064 3.29191 14.8463 2.97318ZM10.5006 1.80879C10.9819 2.45458 11.2875 3.21854 11.3867 4.01826C11.0969 3.9788 10.8012 3.95801 10.5006 3.95801C10.2001 3.95801 9.90445 3.9788 9.61459 4.01826C9.7138 3.2185 10.0194 2.45454 10.5006 1.80879ZM6.15508 2.97318C6.89492 3.29187 7.54158 3.80084 8.02741 4.44396C7.47439 4.67065 6.95903 4.97081 6.49367 5.33248C6.17879 4.58957 6.06103 3.77418 6.15508 2.97318ZM2.97383 6.15439C3.77486 6.06035 4.59026 6.17814 5.33313 6.49298C4.97141 6.95838 4.67126 7.4737 4.44461 8.02676C3.80148 7.54093 3.29256 6.89423 2.97383 6.15439ZM4.01891 9.61386C3.97949 9.90376 3.95866 10.1995 3.95866 10.5C3.95866 10.8005 3.97949 11.0962 4.01891 11.3861C3.21898 11.287 2.45527 10.9813 1.80944 10.5C2.45527 10.0187 3.21894 9.71303 4.01891 9.61386ZM2.97383 14.8456C3.29252 14.1057 3.80148 13.459 4.44461 12.9732C4.6713 13.5263 4.97145 14.0416 5.33313 14.507C4.59017 14.8219 3.77474 14.9397 2.97383 14.8456ZM6.15504 18.0268C6.06103 17.2259 6.17883 16.4104 6.49363 15.6675C6.95903 16.0292 7.47435 16.3293 8.02741 16.556C7.54158 17.1992 6.89488 17.7081 6.15504 18.0268ZM10.5006 19.1912C10.0194 18.5454 9.7138 17.7815 9.61459 16.9817C9.90445 17.0212 10.2002 17.042 10.5006 17.042C10.8011 17.042 11.0969 17.0212 11.3867 16.9817C11.2875 17.7815 10.9819 18.5454 10.5006 19.1912ZM14.8462 18.0268C14.1064 17.7081 13.4597 17.1992 12.9739 16.556C13.5269 16.3293 14.0423 16.0292 14.5076 15.6675C14.8225 16.4104 14.9403 17.2258 14.8462 18.0268ZM18.0275 14.8456C17.2265 14.9397 16.4111 14.8219 15.6682 14.507C16.0299 14.0416 16.33 13.5263 16.5567 12.9732C17.1998 13.4591 17.7087 14.1058 18.0275 14.8456ZM16.9824 11.3862C17.0218 11.0963 17.0426 10.8006 17.0426 10.5C17.0426 10.1995 17.0218 9.90376 16.9824 9.61386C17.7823 9.71303 18.546 10.0187 19.1919 10.5C18.546 10.9814 17.7824 11.287 16.9824 11.3862Z" fill="white"/>
</g>
<defs>
<clipPath id="clip0">
<rect width="21" height="21" fill="white"/>
</clipPath>
</defs>
</svg>
