<svg width="64" height="64" viewBox="0 0 64 64" fill="none" xmlns="http://www.w3.org/2000/svg">
<path fill-rule="evenodd" clip-rule="evenodd" d="M27.2912 3.31853C25.3295 3.31853 24.2187 4.63404 24.2187 5.7047V17.6027C24.2187 18.0329 24.1138 18.4563 23.9132 18.8354L3.50634 57.4057C3.13059 58.1159 3.22184 58.8503 3.69489 59.4814C4.18621 60.137 5.11622 60.6815 6.35114 60.6815H57.6489C58.8838 60.6815 59.8138 60.137 60.3051 59.4814C60.7782 58.8503 60.8694 58.1159 60.4937 57.4057L40.0868 18.8354C39.8862 18.4563 39.7813 18.0329 39.7813 17.6027V5.7047C39.7813 4.63404 38.6704 3.31853 36.7088 3.31853H27.2912ZM20.946 5.7047C20.946 2.30689 24.0516 0 27.2912 0H36.7088C39.9484 0 43.054 2.30689 43.054 5.7047V17.424L63.3775 55.8369C64.4189 57.8051 64.0791 59.9305 62.9107 61.4894C61.7605 63.024 59.8386 64 57.6489 64H6.35114C4.16139 64 2.23947 63.024 1.0893 61.4894C-0.07914 59.9305 -0.418923 57.8051 0.622463 55.8369L20.946 17.424V5.7047Z" fill="#9FBE37"/>
<path d="M53.2341 56.3438H10.1833C9.97097 56.3438 9.83561 56.114 9.93629 55.9245L27.3542 23.1393C27.3542 23.1393 27.9791 21.7194 29.4342 22.0304C30.8892 22.3413 30.358 23.9827 31.6941 24.4105C33.0302 24.8383 35.9098 21.1053 36.6921 23.1393L53.483 55.9283C53.58 56.1177 53.4445 56.3438 53.2341 56.3438Z" fill="#9FBE37"/>
</svg>
