<svg width="47" height="64" viewBox="0 0 47 64" fill="none" xmlns="http://www.w3.org/2000/svg">
<path fill-rule="evenodd" clip-rule="evenodd" d="M32.2912 0L30.7864 4.46587C28.3499 11.6967 27.6386 16.1053 30.5241 19.596C32.7285 22.2627 34.5311 24.7726 35.6766 27.7572C35.6991 27.4014 35.7141 27.0391 35.7227 26.6713C35.752 25.4096 35.7057 24.1314 35.6498 22.8721C35.6415 22.686 35.633 22.4998 35.6245 22.3137C35.5763 21.2599 35.5285 20.214 35.5285 19.2595V14.4779L38.235 18.4203C38.3608 18.6035 38.5016 18.8064 38.6552 19.0277C40.6636 21.9208 44.8683 27.9777 46.4047 34.7179C47.2432 38.3965 47.42 43.0312 45.4337 47.8505C43.4431 52.6804 39.346 57.5351 31.923 61.7571L27.9799 63.9998L29.8358 59.8614C31.6391 55.8403 32.3604 53.1393 32.3243 50.9489C32.2894 48.828 31.54 47.0112 29.9708 44.751C29.8037 44.5103 29.6398 44.2756 29.4795 44.046C28.1032 42.0751 26.9902 40.4812 26.3599 38.7087C25.9172 37.4638 25.7189 36.169 25.7331 34.6277C23.2104 36.9713 20.8315 40.6285 21.053 46.3449L21.2301 50.9153L18.4041 47.3183C18.3425 47.2399 18.2801 47.1607 18.2171 47.0806C17.2479 45.8499 16.1189 44.4164 15.2653 42.6578C14.8232 43.4433 14.5242 44.1234 14.3084 44.837C13.8895 46.2226 13.7528 47.8371 13.6982 50.7411C13.6425 53.7108 14.2599 55.1117 16.4812 59.6115L18.4636 63.6273L14.4755 61.5882C10.1956 59.3998 4.30013 54.1677 1.53907 46.6691C-1.26506 39.0535 -0.762071 29.2993 7.48799 18.3664L9.6966 15.4395L10.1446 19.0783C10.425 21.3565 11.3356 23.515 12.5576 25.5346C13.0517 21.1217 14.3492 17.522 16.4791 14.2849C19.2325 10.1002 23.3096 6.63101 28.4994 2.79949L32.2912 0ZM18.9578 15.9149C16.5476 19.578 15.2958 23.8422 15.2958 29.8746V34.1072L12.6533 30.8002C10.8456 28.5379 9.03595 25.8524 7.99085 22.8151C2.1317 31.875 2.11333 39.6426 4.32328 45.6445C5.93756 50.0286 8.7736 53.558 11.5829 56.0065C10.9621 54.2951 10.6929 52.7607 10.7319 50.6854C10.7864 47.7829 10.9186 45.7973 11.4685 43.9788C12.0242 42.141 12.9748 40.5762 14.44 38.4491L16.4089 35.5909L17.1142 38.9889C17.36 40.1728 17.8045 41.2074 18.3638 42.1716C19.5035 35.7209 23.7334 32.0784 26.6893 30.1461L29.4386 28.3488L28.9694 31.5991C28.5299 34.6433 28.6517 36.2986 29.1554 37.7152C29.6441 39.0895 30.5118 40.3357 31.9648 42.4225C32.1069 42.6266 32.2546 42.8387 32.4081 43.0598C34.1635 45.5882 35.2426 47.9754 35.2908 50.9001C35.3199 52.6722 34.9685 54.5717 34.2545 56.7461C38.7831 53.4641 41.3391 49.9997 42.6906 46.7206C44.386 42.6071 44.2522 38.6239 43.512 35.3769C42.5766 31.2731 40.5342 27.4085 38.6771 24.4225C38.6982 25.1819 38.7069 25.9602 38.6887 26.7402C38.6258 29.4472 38.2412 32.3783 36.7689 34.79L34.3232 38.7962L34.0223 34.1125C33.687 28.8925 31.6317 25.5919 28.2371 21.4854C25.066 17.6492 25.246 13.1284 26.6002 7.99692C23.302 10.6583 20.7797 13.1459 18.9578 15.9149Z" fill="#9FBE37"/>
</svg>
