<svg width="63" height="62" viewBox="0 0 63 62" fill="none" xmlns="http://www.w3.org/2000/svg">
<path d="M10.5276 38.049C11.8359 38.4741 13.0325 38.7248 14.1492 38.856C13.3254 39.6196 12.5057 40.5276 11.6954 41.6428C6.9557 48.1665 11.1667 58.8412 11.3483 59.2925C11.4777 59.6141 11.6952 59.8928 11.9757 60.0965C14.6592 62.0462 17.9978 62.1799 21.1481 61.1282C24.3541 60.0578 27.3602 57.7609 29.6128 54.6606C30.4214 53.5477 31.0296 52.4872 31.4993 51.4657C31.9711 52.4851 32.5812 53.5453 33.3916 54.6606C36.8482 59.4182 44.6577 60.8161 50.0699 60.4447C50.4159 60.421 50.7481 60.3004 51.0285 60.0965C53.5182 58.2877 54.8734 55.3028 54.8442 51.6919C54.8169 48.312 53.5613 44.7431 51.3089 41.6428C50.491 40.5171 49.6608 39.6026 48.8249 38.8347C49.8413 38.6944 50.9422 38.4468 52.1668 38.0489C59.8233 35.561 62.8161 24.4648 62.9398 23.9937C63.0295 23.6516 63.0193 23.2911 62.9099 22.9548C61.959 20.0285 59.5153 17.8167 56.0286 16.7271C52.7709 15.7091 48.9692 15.8011 45.3229 16.9859C44.1595 17.3638 43.1543 17.8014 42.2641 18.2802C42.4605 17.2265 42.5758 16.0679 42.5758 14.7646C42.5758 6.70106 32.8946 0.54014 32.4824 0.281759C32.1886 0.0975697 31.849 0 31.5023 0C28.425 0 25.5742 1.61833 23.4754 4.55674C21.5108 7.30715 20.4288 10.9324 20.4288 14.7646C20.4288 16.0236 20.5386 17.1485 20.7259 18.1754C19.9227 17.7385 19.003 17.3366 17.9231 16.9857C10.2536 14.494 1.40296 21.7977 1.02991 22.1097C0.764023 22.3321 0.566176 22.6251 0.45901 22.9548C-1.48931 28.9513 2.93344 35.5813 10.5276 38.049ZM26.6265 52.4908C24.8223 54.9739 22.4615 56.798 19.9791 57.6268C17.9237 58.313 16.0264 58.2247 14.5728 57.3873C13.518 54.4539 11.9161 47.6188 14.6818 43.8122C16.7445 40.9731 18.7273 39.8638 21.6037 38.3957C24.3007 37.985 26.9692 37.702 30.8636 38.846C28.9989 44.218 30.1078 47.6993 26.6265 52.4908ZM29.4734 31.9362C30.4346 31.6121 31.3035 31.2617 32.0944 30.8912C32.6988 31.7047 33.3007 32.425 33.8982 33.0673C33.3123 33.8925 32.8139 34.6865 32.3884 35.4522C31.4226 35.1499 30.5134 34.9213 29.6536 34.7533C29.6427 33.7411 29.5792 32.8058 29.4734 31.9362ZM51.153 51.7217C51.1706 53.8884 50.5002 55.6657 49.2546 56.7895C46.1392 56.8863 39.1434 56.2975 36.3777 52.4909C34.2027 49.4974 33.817 47.0735 33.3705 44.2671L33.3652 44.2339C33.808 41.542 34.3634 38.9168 36.655 35.5666C41.1831 38.9964 44.8402 39.0194 48.3225 43.8126C50.1268 46.2955 51.132 49.1045 51.153 51.7217ZM46.4633 20.4964C49.346 19.5598 52.4311 19.4701 54.9273 20.2503C57.0187 20.9039 58.5175 22.083 59.2074 23.6018C58.5601 25.6655 55.9596 32.9355 51.0259 34.5386C47.6557 35.6336 45.638 35.3432 42.5529 34.8524C40.1239 33.5966 37.7935 32.2539 35.3087 29.023C39.9454 25.7206 40.8628 22.3161 46.4633 20.4964ZM26.4787 6.70229C27.7382 4.93902 29.3251 3.89516 30.9933 3.71823C33.5707 5.47116 38.8844 10.0593 38.8844 14.7648C38.8844 18.3232 37.8554 20.4829 36.6307 22.8958C34.657 24.9318 32.7385 26.8547 28.712 28.2937C27.0647 22.8575 24.1197 20.6899 24.1197 14.7648C24.1198 11.6953 24.9576 8.83209 26.4787 6.70229ZM3.83372 24.591C6.29498 22.6822 12.3051 19.0417 16.7823 20.4964C20.2307 21.6169 21.3894 23.2407 23.519 25.4013C24.744 27.8408 25.8389 30.2916 25.9544 34.3515C20.2909 34.2387 17.2878 36.3643 11.6682 34.5384C7.21519 33.0915 2.82775 29.0662 3.83372 24.591Z" fill="#9FBE37"/>
</svg>
