<svg width="40" height="64" viewBox="0 0 40 64" fill="none" xmlns="http://www.w3.org/2000/svg">
<path fill-rule="evenodd" clip-rule="evenodd" d="M32.4842 55.7123C35.1803 52.342 36.5909 47.4277 36.5909 41.6C36.5909 38.9731 35.6959 35.1783 34.1325 30.7758C32.5916 26.4368 30.4865 21.7388 28.2569 17.396C26.0244 13.0475 23.7034 9.12586 21.7534 6.32929C21.0966 5.38736 20.5072 4.60975 20 4.00237C19.4928 4.60975 18.9034 5.38736 18.2466 6.32929C16.2966 9.12586 13.9756 13.0475 11.7431 17.396C9.51349 21.7388 7.4084 26.4368 5.86754 30.7758C4.30409 35.1783 3.40909 38.9731 3.40909 41.6C3.40909 47.4277 4.81971 52.342 7.51582 55.7123C10.0954 58.9369 14.0367 61 20 61C25.9633 61 29.9046 58.9369 32.4842 55.7123ZM21.2592 2.70607C21.3088 2.67238 21.3023 2.68362 21.2446 2.71637C21.2502 2.71231 21.2551 2.70889 21.2592 2.70607ZM18.7554 2.71637C18.6977 2.68362 18.6912 2.67238 18.7408 2.70607C18.7449 2.70889 18.7498 2.71231 18.7554 2.71637ZM20 64C34.0582 64 40 53.9712 40 41.6C40 29.2288 23.6364 0 20 0C16.3636 0 0 29.2288 0 41.6C0 53.9712 5.94184 64 20 64Z" fill="#9FBE37"/>
<path fill-rule="evenodd" clip-rule="evenodd" d="M10.8275 31.8671C11.5383 32.1591 11.8456 32.9029 11.5139 33.5285C9.67699 36.9918 9.11103 42.3347 10.197 46.933C11.3008 51.607 13.9082 54.8576 17.7793 55.2584C18.5584 55.339 19.1157 55.9602 19.0241 56.6459C18.9324 57.3315 18.2265 57.8219 17.4474 57.7412C11.6596 57.142 8.58473 52.3926 7.41549 47.4417C6.22837 42.4149 6.79853 36.5079 8.93954 32.4711C9.27133 31.8456 10.1166 31.5751 10.8275 31.8671Z" fill="#9FBE37"/>
</svg>
