<svg width="67" height="64" viewBox="0 0 67 64" fill="none" xmlns="http://www.w3.org/2000/svg">
<path d="M57.2162 40.9498C64.6406 38.5776 68.7187 30.7129 66.3054 23.412C63.8359 16.0155 55.8157 12.1364 48.4552 14.484C48.1729 14.5738 47.9025 14.6608 47.6456 14.7425C47.6563 14.4675 47.6636 14.1913 47.6636 13.9143C47.6636 6.24211 41.3131 0 33.5073 0C25.7846 0 19.3406 6.12254 19.3406 13.9143V14.7546C19.0788 14.6604 18.8149 14.569 18.5482 14.484C11.1287 12.1166 3.12042 16.1234 0.697242 23.4176C-1.72307 30.7443 2.36118 38.5776 9.79871 40.9498C10.081 41.0404 10.3523 41.1265 10.6092 41.2091C10.435 41.4265 10.2638 41.6467 10.0974 41.8714C10.0827 41.8915 10.0683 41.9116 10.0552 41.9318C5.47148 48.1924 6.95555 56.8152 13.22 61.3039C13.2622 61.3345 13.3056 61.3627 13.3503 61.3896C20.6583 66.4992 29.1964 63.389 33.0143 58.2287L33.5134 57.5544C33.6675 57.781 33.8256 58.0061 33.9895 58.2279C34.0256 58.2762 34.0633 58.3229 34.1026 58.3672C38.9649 64.7776 47.7943 65.5744 53.7703 61.3083C53.7884 61.2958 53.8056 61.2834 53.8224 61.2701C60.0901 56.7544 61.5217 48.1103 56.9065 41.8722L56.4021 41.1893C56.6368 41.1241 56.872 41.0553 57.1064 40.982C57.1433 40.9723 57.1797 40.9619 57.2162 40.9498ZM49.6676 18.1526C54.9782 16.4596 60.783 19.2481 62.5731 24.6089C64.3051 29.8489 61.4062 35.5572 55.9919 37.2816C51.5057 38.7141 46.7225 38.3441 42.521 36.2396L41.0521 35.5036C45.4584 34.4544 49.2948 31.5842 51.4402 27.5387C51.9605 26.7263 51.7675 25.7471 51.1566 25.1476C50.2118 24.2188 48.6122 24.4922 48.0156 25.6469C46.1025 29.3505 42.317 31.773 38.1438 32.0569C39.128 31.089 40.2404 29.9959 41.3389 28.9177C44.169 26.1344 46.1161 22.7162 47.0429 18.9917C47.6436 18.7996 48.57 18.5037 49.6676 18.1526ZM23.2663 13.9143C23.2663 8.33611 27.8648 3.85784 33.5073 3.85784C39.1477 3.85784 43.7371 8.36912 43.7371 13.9147C43.7371 18.5496 41.8995 22.9095 38.563 26.1896C38.1762 26.5697 37.7869 26.9517 37.4026 27.329C37.7517 22.8491 36.13 18.3346 32.8189 15.067C32.056 14.2887 30.785 14.2819 30.0282 15.0259C29.312 15.7297 29.1878 16.9552 30.0175 17.7701C33.0119 20.7112 34.1854 25.0035 33.1688 28.9869C32.5358 27.7674 31.8212 26.3897 31.1169 25.0301C29.2976 21.5241 26.5885 18.6474 23.2667 16.6299V13.9143H23.2663ZM4.43035 24.6121C6.18197 19.3391 11.9715 16.4419 17.3354 18.1526C21.8228 19.5855 25.4752 22.6506 27.6185 26.7814C27.8664 27.2597 28.1151 27.7396 28.3618 28.2151C24.1227 26.502 19.2374 26.6296 15.0433 28.7297C13.8629 29.3203 13.6015 30.8857 14.5389 31.8056C15.1208 32.3769 16.0525 32.5762 16.8626 32.1483C20.6321 30.2773 25.1355 30.5124 28.6683 32.6902L24.1927 33.3871C20.2367 34.0011 16.6159 35.6417 13.6371 38.1206C13.0364 37.9286 12.1104 37.6323 11.0115 37.2816C5.63538 35.5668 2.68159 29.9053 4.43035 24.6121ZM29.8385 55.9612C28.2536 58.1023 25.8165 59.5686 23.1512 59.9833C17.3755 60.882 12.3075 56.9206 11.4385 51.6251C10.1175 43.4069 19.0993 38.0832 24.8061 37.1966L26.4233 36.945C23.4679 40.3676 22.0838 44.9534 22.8066 49.5053C22.9377 50.4454 23.7584 51.1697 24.7512 51.1697C25.9587 51.1697 26.879 50.1084 26.6901 48.9388C26.0271 44.829 27.6431 40.678 30.846 38.0413C30.6268 39.3993 30.3797 40.9317 30.1388 42.4362C29.5082 46.3235 29.977 50.2163 31.4582 53.7702L29.8385 55.9612ZM53.7306 44.1397C57.1003 48.694 55.9956 54.9507 51.4631 58.1869C51.4484 58.1973 51.4332 58.2078 51.4184 58.2187C50.6809 58.7397 43.5741 63.4377 37.0929 55.8618C34.3726 52.1267 33.2803 47.58 34.0166 43.0393C34.1018 42.5103 34.1866 41.9781 34.2714 41.451C36.6438 45.2445 40.6018 47.9452 45.1765 48.7049C46.4504 49.023 47.6173 48.0426 47.6173 46.8428C47.6173 46.2313 47.2207 45.1184 45.9546 44.9216C41.777 44.2721 38.2647 41.4756 36.7065 37.6572L40.7387 39.6759C43.8178 41.2191 47.1535 41.999 50.5133 41.999C51.0431 41.999 51.5737 41.9797 52.1039 41.9402L53.7306 44.1397Z" fill="#9FBE37"/>
</svg>
