<svg width="64" height="64" viewBox="0 0 64 64" fill="none" xmlns="http://www.w3.org/2000/svg">
<path d="M31.9971 23.3125C27.2068 23.3125 23.3096 27.2098 23.3096 32C23.3096 36.7902 27.2068 40.6875 31.9971 40.6875C36.7873 40.6875 40.6846 36.7902 40.6846 32C40.6846 27.2098 36.7873 23.3125 31.9971 23.3125ZM31.9971 36.9375C29.2746 36.9375 27.0596 34.7225 27.0596 32C27.0596 29.2775 29.2746 27.0625 31.9971 27.0625C34.7196 27.0625 36.9346 29.2775 36.9346 32C36.9346 34.7225 34.7196 36.9375 31.9971 36.9375Z" fill="#9FBE37"/>
<path d="M63.9973 32L62.6715 30.6742C60.3824 28.3851 57.5159 26.7788 54.4205 25.992C56.7078 23.763 58.3871 20.939 59.225 17.812L59.7103 16.0009L57.8993 15.5155C54.7719 14.6776 51.4864 14.72 48.4125 15.5864C49.2789 12.5124 49.3213 9.22688 48.4834 6.09963L47.998 4.2885L46.187 4.77375C43.0598 5.61162 40.2355 7.29112 38.0065 9.5785C37.2198 6.48312 35.6136 3.6165 33.3244 1.32738L31.9986 0L30.6729 1.32712C28.3836 3.61625 26.7775 6.48275 25.9908 9.57825C23.7618 7.291 20.9376 5.6115 17.8105 4.7735L15.9994 4.28825L15.514 6.09925C14.6761 9.2265 14.7184 12.512 15.5848 15.5859C12.5108 14.7195 9.22525 14.6771 6.09813 15.5151L4.287 16.0005L4.77225 17.8115C5.61013 20.9388 7.28963 23.763 9.577 25.992C6.4815 26.7788 3.61488 28.3849 1.32588 30.674L0 32L1.32575 33.3257C3.61513 35.6151 6.48163 37.221 9.577 38.0078C7.28963 40.2368 5.61013 43.0609 4.77213 46.1881L4.28688 47.9992L6.09788 48.4846C7.61013 48.8898 9.159 49.0893 10.7034 49.0891C12.353 49.0891 13.9971 48.8607 15.5849 48.4132C14.7184 51.4874 14.676 54.7732 15.5139 57.9006L15.9993 59.7118L17.8103 59.2265C20.9375 58.3886 23.7618 56.7091 25.9908 54.4217C26.7775 57.5171 28.3836 60.3838 30.6729 62.6729L31.9986 64L33.3244 62.6729C35.6136 60.3836 37.2198 57.5171 38.0065 54.4217C40.2355 56.709 43.0596 58.3885 46.1868 59.2265L47.9979 59.7118L48.4833 57.9007C49.3213 54.7734 49.2789 51.4876 48.4124 48.4134C50.0001 48.8609 51.6443 49.0892 53.294 49.0892C54.8381 49.0892 56.3873 48.8897 57.8991 48.4847L59.7103 47.9994L59.225 46.1884C58.387 43.061 56.7075 40.2368 54.4201 38.0076C57.5156 37.2209 60.3824 35.615 62.6715 33.3257L63.9973 32ZM54.9375 18.7564C53.9663 21.0111 52.4151 22.9819 50.4551 24.4625C49.7643 22.7771 48.8495 21.2065 47.7473 19.7881C50.0115 18.8284 52.4968 18.4692 54.9375 18.7564ZM31.9986 48.1875C23.0729 48.1875 15.8111 40.9258 15.8111 32C15.8111 23.0742 23.0729 15.8125 31.9986 15.8125C40.9244 15.8125 48.1861 23.0742 48.1861 32C48.1861 40.9258 40.9244 48.1875 31.9986 48.1875ZM45.2424 9.06112C45.5289 11.5021 45.1699 13.9873 44.2105 16.2514C42.7921 15.1491 41.2216 14.2344 39.5361 13.5435C41.0168 11.5835 42.9876 10.0325 45.2424 9.06112ZM31.9986 5.5125C33.4654 7.48062 34.3966 9.80888 34.699 12.2461C33.8156 12.1259 32.9145 12.0625 31.9986 12.0625C31.0828 12.0625 30.1816 12.1259 29.2983 12.2461C29.6006 9.80875 30.5319 7.4805 31.9986 5.5125ZM18.755 9.06112C21.0098 10.0324 22.9805 11.5835 24.4611 13.5435C22.7758 14.2344 21.2051 15.1491 19.7869 16.2514C18.8273 13.9873 18.4684 11.5022 18.755 9.06112ZM9.05975 18.7563C11.501 18.4696 13.986 18.8286 16.25 19.7881C15.1476 21.2065 14.2329 22.777 13.5421 24.4625C11.5821 22.9819 10.0311 21.011 9.05975 18.7563ZM12.2448 29.2994C12.1246 30.1829 12.0611 31.0841 12.0611 32C12.0611 32.9159 12.1246 33.8171 12.2448 34.7006C9.80688 34.3984 7.47938 33.4669 5.51113 32C7.47938 30.5331 9.80675 29.6016 12.2448 29.2994ZM9.05975 45.2436C10.031 42.9889 11.5821 41.018 13.5421 39.5375C14.233 41.2229 15.1478 42.7935 16.25 44.2119C13.9858 45.1715 11.5006 45.5306 9.05975 45.2436ZM18.7549 54.9389C18.4684 52.4979 18.8274 50.0128 19.7868 47.7486C21.2051 48.8509 22.7756 49.7656 24.4611 50.4565C22.9805 52.4165 21.0096 53.9675 18.7549 54.9389ZM31.9986 58.4875C30.5319 56.5194 29.6006 54.1911 29.2983 51.7539C30.1816 51.874 31.0829 51.9375 31.9986 51.9375C32.9144 51.9375 33.8156 51.8741 34.699 51.7539C34.3966 54.1911 33.4654 56.5194 31.9986 58.4875ZM45.2423 54.9389C42.9875 53.9676 41.0168 52.4165 39.5361 50.4565C41.2215 49.7656 42.7921 48.8509 44.2104 47.7486C45.17 50.0128 45.5289 52.4977 45.2423 54.9389ZM54.9375 45.2438C52.4965 45.5306 50.0114 45.1715 47.7473 44.2119C48.8496 42.7935 49.7644 41.223 50.4551 39.5375C52.4151 41.0181 53.9661 42.989 54.9375 45.2438ZM51.7525 34.7007C51.8726 33.8172 51.9361 32.916 51.9361 32C51.9361 31.0841 51.8726 30.1829 51.7525 29.2994C54.1904 29.6016 56.5178 30.5331 58.4861 32C56.5178 33.467 54.1906 34.3986 51.7525 34.7007Z" fill="#9FBE37"/>
</svg>
